G04 Layer_Physical_Order=1*
G04 Layer_Color=255*
%FSLAX44Y44*%
%MOMM*%
G71*
G01*
G75*
%ADD10R,0.8500X0.8500*%
%ADD11O,2.5500X1.1000*%
%ADD12O,1.1000X2.5500*%
%ADD13R,1.0500X2.2000*%
%ADD14R,1.0000X1.0500*%
%ADD15R,0.8500X0.8500*%
%ADD16R,1.2700X3.3000*%
%ADD17C,0.2540*%
%ADD18C,1.0000*%
%ADD19C,2.0000*%
%ADD20R,2.0000X2.0000*%
%ADD21R,2.0000X2.0000*%
%ADD22C,1.6000*%
%ADD23C,1.0000*%
%ADD24C,0.4600*%
%ADD25C,0.4000*%
%ADD26C,0.8000*%
%ADD27C,3.0000*%
G36*
X250000Y0D02*
X0D01*
Y113250D01*
X2500D01*
Y120500D01*
X5000D01*
Y123000D01*
X12250D01*
Y127250D01*
Y130646D01*
X14517D01*
X15008Y130007D01*
X16470Y128885D01*
X18173Y128180D01*
X20000Y127940D01*
X21827Y128180D01*
X23530Y128885D01*
X24992Y130007D01*
X26114Y131470D01*
X26820Y133173D01*
X27060Y135000D01*
X26820Y136827D01*
X26114Y138530D01*
X24992Y139992D01*
X23530Y141114D01*
X21827Y141820D01*
X20000Y142060D01*
X18173Y141820D01*
X16470Y141114D01*
X15008Y139992D01*
X14517Y139354D01*
X12250D01*
Y141750D01*
X0D01*
Y250000D01*
X250000D01*
Y0D01*
D02*
G37*
G36*
X232500Y597500D02*
X-17500D01*
Y847500D01*
X232500D01*
Y597500D01*
D02*
G37*
G36*
X882500Y42500D02*
X382500D01*
Y842500D01*
X882500D01*
Y42500D01*
D02*
G37*
%LPC*%
G36*
X47500Y202598D02*
X45549Y202210D01*
X43895Y201105D01*
X42790Y199451D01*
X42402Y197500D01*
X42790Y195549D01*
X43895Y193895D01*
X44146Y193727D01*
Y189573D01*
X41250D01*
X39031Y189281D01*
X36963Y188425D01*
X35188Y187062D01*
X33825Y185287D01*
X32969Y183219D01*
X32677Y181000D01*
X32969Y178781D01*
X33825Y176713D01*
X35188Y174938D01*
X36774Y173721D01*
X36879Y173000D01*
X36774Y172279D01*
X35188Y171062D01*
X33825Y169287D01*
X32969Y167219D01*
X32677Y165000D01*
X32969Y162781D01*
X33825Y160713D01*
X35188Y158938D01*
X36774Y157721D01*
X36879Y157000D01*
X36774Y156279D01*
X35188Y155062D01*
X33825Y153287D01*
X32969Y151219D01*
X32677Y149000D01*
X32969Y146781D01*
X33825Y144713D01*
X35188Y142938D01*
X36774Y141721D01*
X36879Y141000D01*
X36774Y140279D01*
X35188Y139062D01*
X33825Y137287D01*
X32969Y135219D01*
X32677Y133000D01*
X32969Y130781D01*
X33825Y128713D01*
X35188Y126938D01*
X36774Y125721D01*
X36879Y125000D01*
X36774Y124279D01*
X35188Y123062D01*
X33825Y121287D01*
X32969Y119219D01*
X32677Y117000D01*
X32969Y114781D01*
X33825Y112713D01*
X35188Y110938D01*
X36774Y109721D01*
X36879Y109000D01*
X36774Y108279D01*
X35188Y107062D01*
X33825Y105287D01*
X32969Y103219D01*
X32677Y101000D01*
X32969Y98781D01*
X33825Y96713D01*
X35188Y94938D01*
X36774Y93721D01*
X36879Y93000D01*
X36774Y92279D01*
X35188Y91062D01*
X33825Y89287D01*
X33085Y87500D01*
X48500D01*
X63915D01*
X63175Y89287D01*
X61812Y91062D01*
X60226Y92279D01*
X60121Y93000D01*
X60226Y93721D01*
X61812Y94938D01*
X63175Y96713D01*
X64031Y98781D01*
X64323Y101000D01*
X64031Y103219D01*
X63175Y105287D01*
X61812Y107062D01*
X60226Y108279D01*
X60121Y109000D01*
X60226Y109721D01*
X61433Y110646D01*
X62516D01*
X63049Y110290D01*
X65000Y109902D01*
X66951Y110290D01*
X68605Y111395D01*
X69710Y113049D01*
X70098Y115000D01*
X69710Y116951D01*
X68605Y118605D01*
X66951Y119710D01*
X65000Y120098D01*
X63769Y119853D01*
X63175Y121287D01*
X61812Y123062D01*
X60226Y124279D01*
X60121Y125000D01*
X60226Y125721D01*
X61812Y126938D01*
X63175Y128713D01*
X64031Y130781D01*
X64323Y133000D01*
X64031Y135219D01*
X63175Y137287D01*
X61812Y139062D01*
X60226Y140279D01*
X60121Y141000D01*
X60226Y141721D01*
X61812Y142938D01*
X63175Y144713D01*
X64031Y146781D01*
X64323Y149000D01*
X64031Y151219D01*
X63175Y153287D01*
X61812Y155062D01*
X60226Y156279D01*
X60121Y157000D01*
X60226Y157721D01*
X61812Y158938D01*
X63175Y160713D01*
X64031Y162781D01*
X64323Y165000D01*
X64031Y167219D01*
X63175Y169287D01*
X61812Y171062D01*
X60226Y172279D01*
X60121Y173000D01*
X60226Y173721D01*
X61812Y174938D01*
X63175Y176713D01*
X64031Y178781D01*
X64323Y181000D01*
X64031Y183219D01*
X63175Y185287D01*
X61812Y187062D01*
X60037Y188425D01*
X57969Y189281D01*
X55750Y189573D01*
X52854D01*
Y196500D01*
X52522Y198166D01*
X52441Y198287D01*
X52210Y199451D01*
X51105Y201105D01*
X49451Y202210D01*
X47500Y202598D01*
D02*
G37*
G36*
X12250Y118000D02*
X7500D01*
Y113250D01*
X12250D01*
Y118000D01*
D02*
G37*
G36*
X85000Y74560D02*
X83173Y74320D01*
X81470Y73615D01*
X80008Y72492D01*
X78885Y71030D01*
X78180Y69327D01*
X77940Y67500D01*
X78180Y65673D01*
X78885Y63970D01*
X79947Y62587D01*
X78938Y61812D01*
X77721Y60226D01*
X77000Y60121D01*
X76279Y60226D01*
X75062Y61812D01*
X73287Y63175D01*
X71219Y64031D01*
X69000Y64323D01*
X66781Y64031D01*
X64713Y63175D01*
X62938Y61812D01*
X61575Y60037D01*
X60719Y57969D01*
X60427Y55750D01*
Y41250D01*
X60719Y39031D01*
X61575Y36963D01*
X62938Y35188D01*
X64713Y33825D01*
X66781Y32969D01*
X69000Y32677D01*
X71219Y32969D01*
X73287Y33825D01*
X75062Y35188D01*
X76279Y36774D01*
X77000Y36879D01*
X77721Y36774D01*
X78938Y35188D01*
X80713Y33825D01*
X82781Y32969D01*
X85000Y32677D01*
X87219Y32969D01*
X89287Y33825D01*
X91062Y35188D01*
X92279Y36774D01*
X93000Y36879D01*
X93721Y36774D01*
X94938Y35188D01*
X96713Y33825D01*
X98781Y32969D01*
X101000Y32677D01*
X103219Y32969D01*
X105287Y33825D01*
X107062Y35188D01*
X108279Y36774D01*
X109000Y36879D01*
X109721Y36774D01*
X110938Y35188D01*
X112713Y33825D01*
X114781Y32969D01*
X117000Y32677D01*
X119219Y32969D01*
X121287Y33825D01*
X123062Y35188D01*
X124279Y36774D01*
X125000Y36879D01*
X125721Y36774D01*
X126938Y35188D01*
X128713Y33825D01*
X130781Y32969D01*
X133000Y32677D01*
X135219Y32969D01*
X137287Y33825D01*
X139062Y35188D01*
X140279Y36774D01*
X141000Y36879D01*
X141721Y36774D01*
X142938Y35188D01*
X144713Y33825D01*
X146500Y33085D01*
Y48500D01*
Y63915D01*
X144713Y63175D01*
X142938Y61812D01*
X141721Y60226D01*
X141000Y60121D01*
X140279Y60226D01*
X139062Y61812D01*
X137287Y63175D01*
X135219Y64031D01*
X133000Y64323D01*
X130781Y64031D01*
X128713Y63175D01*
X126938Y61812D01*
X125721Y60226D01*
X125000Y60121D01*
X124279Y60226D01*
X123062Y61812D01*
X121287Y63175D01*
X119219Y64031D01*
X117000Y64323D01*
X114781Y64031D01*
X112713Y63175D01*
X110938Y61812D01*
X109721Y60226D01*
X109000Y60121D01*
X108279Y60226D01*
X107062Y61812D01*
X105287Y63175D01*
X103219Y64031D01*
X101000Y64323D01*
X98781Y64031D01*
X96713Y63175D01*
X94938Y61812D01*
X93721Y60226D01*
X93000Y60121D01*
X92279Y60226D01*
X91062Y61812D01*
X90053Y62587D01*
X91115Y63970D01*
X91820Y65673D01*
X92060Y67500D01*
X91820Y69327D01*
X91115Y71030D01*
X89993Y72492D01*
X88530Y73615D01*
X86827Y74320D01*
X85000Y74560D01*
D02*
G37*
G36*
X63915Y82500D02*
X48500D01*
X33085D01*
X33825Y80713D01*
X35188Y78938D01*
X36774Y77721D01*
X36879Y77000D01*
X36774Y76279D01*
X35188Y75062D01*
X33825Y73287D01*
X32969Y71219D01*
X32677Y69000D01*
X32969Y66781D01*
X33825Y64713D01*
X35188Y62938D01*
X36963Y61575D01*
X39031Y60719D01*
X41250Y60427D01*
X55750D01*
X57969Y60719D01*
X60037Y61575D01*
X61812Y62938D01*
X63175Y64713D01*
X64031Y66781D01*
X64323Y69000D01*
X64031Y71219D01*
X63175Y73287D01*
X61812Y75062D01*
X60226Y76279D01*
X60121Y77000D01*
X60226Y77721D01*
X61812Y78938D01*
X63175Y80713D01*
X63915Y82500D01*
D02*
G37*
G36*
X216915D02*
X201500D01*
X186085D01*
X186825Y80713D01*
X188188Y78938D01*
X189774Y77721D01*
X189879Y77000D01*
X189774Y76279D01*
X188188Y75062D01*
X186825Y73287D01*
X185969Y71219D01*
X185797Y69917D01*
X184560Y70000D01*
X184320Y71827D01*
X183615Y73530D01*
X182492Y74992D01*
X181030Y76115D01*
X179327Y76820D01*
X177500Y77060D01*
X175673Y76820D01*
X173970Y76115D01*
X172508Y74992D01*
X171385Y73530D01*
X170680Y71827D01*
X170440Y70000D01*
X170680Y68173D01*
X171385Y66470D01*
X172508Y65008D01*
X173970Y63885D01*
X174998Y63460D01*
X175191Y62007D01*
X174938Y61812D01*
X173721Y60226D01*
X173000Y60121D01*
X172279Y60226D01*
X171062Y61812D01*
X169287Y63175D01*
X167219Y64031D01*
X165000Y64323D01*
X162781Y64031D01*
X160713Y63175D01*
X158938Y61812D01*
X157721Y60226D01*
X157000Y60121D01*
X156279Y60226D01*
X155062Y61812D01*
X153287Y63175D01*
X151500Y63915D01*
Y48500D01*
Y33085D01*
X153287Y33825D01*
X155062Y35188D01*
X156279Y36774D01*
X157000Y36879D01*
X157721Y36774D01*
X158938Y35188D01*
X160713Y33825D01*
X162781Y32969D01*
X165000Y32677D01*
X167219Y32969D01*
X169287Y33825D01*
X171062Y35188D01*
X172279Y36774D01*
X173000Y36879D01*
X173721Y36774D01*
X174938Y35188D01*
X176713Y33825D01*
X178781Y32969D01*
X181000Y32677D01*
X183219Y32969D01*
X185287Y33825D01*
X187062Y35188D01*
X188425Y36963D01*
X189281Y39031D01*
X189573Y41250D01*
Y55750D01*
X189281Y57969D01*
X188425Y60037D01*
X187062Y61812D01*
X185354Y63123D01*
Y64948D01*
X186624Y65200D01*
X186825Y64713D01*
X188188Y62938D01*
X189963Y61575D01*
X192031Y60719D01*
X194250Y60427D01*
X208750D01*
X210969Y60719D01*
X213037Y61575D01*
X214812Y62938D01*
X216175Y64713D01*
X217031Y66781D01*
X217323Y69000D01*
X217031Y71219D01*
X216175Y73287D01*
X214812Y75062D01*
X213226Y76279D01*
X213121Y77000D01*
X213226Y77721D01*
X214812Y78938D01*
X216175Y80713D01*
X216915Y82500D01*
D02*
G37*
G36*
X67500Y230098D02*
X65549Y229710D01*
X63895Y228605D01*
X62790Y226951D01*
X62402Y225000D01*
X62790Y223049D01*
X63146Y222516D01*
Y214972D01*
X62938Y214812D01*
X61575Y213037D01*
X60719Y210969D01*
X60427Y208750D01*
Y194250D01*
X60719Y192031D01*
X61575Y189963D01*
X62938Y188188D01*
X64713Y186825D01*
X66781Y185969D01*
X69000Y185677D01*
X71219Y185969D01*
X73287Y186825D01*
X75062Y188188D01*
X76279Y189774D01*
X77000Y189879D01*
X77721Y189774D01*
X78938Y188188D01*
X80646Y186877D01*
Y182484D01*
X80290Y181951D01*
X79902Y180000D01*
X80290Y178049D01*
X81395Y176395D01*
X83049Y175290D01*
X85000Y174902D01*
X86951Y175290D01*
X88605Y176395D01*
X89710Y178049D01*
X90098Y180000D01*
X89710Y181951D01*
X89354Y182484D01*
Y186877D01*
X91062Y188188D01*
X92279Y189774D01*
X93000Y189879D01*
X93721Y189774D01*
X94938Y188188D01*
X96713Y186825D01*
X98781Y185969D01*
X101000Y185677D01*
X103219Y185969D01*
X105287Y186825D01*
X107062Y188188D01*
X108279Y189774D01*
X109000Y189879D01*
X109721Y189774D01*
X110938Y188188D01*
X112713Y186825D01*
X114781Y185969D01*
X117000Y185677D01*
X119219Y185969D01*
X121287Y186825D01*
X123062Y188188D01*
X124279Y189774D01*
X125000Y189879D01*
X125721Y189774D01*
X126938Y188188D01*
X128713Y186825D01*
X130781Y185969D01*
X133000Y185677D01*
X135219Y185969D01*
X137287Y186825D01*
X139062Y188188D01*
X140279Y189774D01*
X141000Y189879D01*
X141721Y189774D01*
X142938Y188188D01*
X144208Y187213D01*
X143902Y185677D01*
X144290Y183726D01*
X145395Y182072D01*
X147049Y180967D01*
X149000Y180579D01*
X150951Y180967D01*
X152605Y182072D01*
X153710Y183726D01*
X154098Y185677D01*
X153792Y187213D01*
X155062Y188188D01*
X156279Y189774D01*
X157000Y189879D01*
X157721Y189774D01*
X158938Y188188D01*
X160646Y186877D01*
Y184984D01*
X160290Y184451D01*
X159902Y182500D01*
X160290Y180549D01*
X161395Y178895D01*
X163049Y177790D01*
X165000Y177402D01*
X166951Y177790D01*
X168605Y178895D01*
X169710Y180549D01*
X170098Y182500D01*
X169710Y184451D01*
X169354Y184984D01*
Y186877D01*
X171062Y188188D01*
X172279Y189774D01*
X173000Y189879D01*
X173721Y189774D01*
X174938Y188188D01*
X176713Y186825D01*
X178500Y186085D01*
Y201500D01*
Y216915D01*
X176713Y216175D01*
X174938Y214812D01*
X173721Y213226D01*
X173000Y213121D01*
X172279Y213226D01*
X171062Y214812D01*
X169287Y216175D01*
X167219Y217031D01*
X165000Y217323D01*
X162781Y217031D01*
X160713Y216175D01*
X158938Y214812D01*
X157721Y213226D01*
X157000Y213121D01*
X156279Y213226D01*
X155062Y214812D01*
X153287Y216175D01*
X151219Y217031D01*
X149000Y217323D01*
X146781Y217031D01*
X144713Y216175D01*
X142938Y214812D01*
X141721Y213226D01*
X141000Y213121D01*
X140279Y213226D01*
X139062Y214812D01*
X137287Y216175D01*
X135219Y217031D01*
X133000Y217323D01*
X130781Y217031D01*
X128713Y216175D01*
X126938Y214812D01*
X125721Y213226D01*
X125000Y213121D01*
X124279Y213226D01*
X123062Y214812D01*
X121287Y216175D01*
X119219Y217031D01*
X117000Y217323D01*
X114781Y217031D01*
X112713Y216175D01*
X110938Y214812D01*
X109721Y213226D01*
X109000Y213121D01*
X108279Y213226D01*
X107062Y214812D01*
X105287Y216175D01*
X103219Y217031D01*
X101000Y217323D01*
X98781Y217031D01*
X96713Y216175D01*
X94938Y214812D01*
X93721Y213226D01*
X93000Y213121D01*
X92279Y213226D01*
X91062Y214812D01*
X89287Y216175D01*
X87219Y217031D01*
X85000Y217323D01*
X82781Y217031D01*
X80713Y216175D01*
X78938Y214812D01*
X77721Y213226D01*
X77000Y213121D01*
X76279Y213226D01*
X75062Y214812D01*
X73287Y216175D01*
X71854Y216768D01*
Y222516D01*
X72210Y223049D01*
X72598Y225000D01*
X72210Y226951D01*
X71105Y228605D01*
X69451Y229710D01*
X67500Y230098D01*
D02*
G37*
G36*
X189573Y199000D02*
X183500D01*
Y186085D01*
X185287Y186825D01*
X187062Y188188D01*
X188425Y189963D01*
X189281Y192031D01*
X189573Y194250D01*
Y199000D01*
D02*
G37*
G36*
X183500Y216915D02*
Y204000D01*
X189573D01*
Y208750D01*
X189281Y210969D01*
X188425Y213037D01*
X187062Y214812D01*
X185287Y216175D01*
X183500Y216915D01*
D02*
G37*
G36*
X208750Y189573D02*
X204000D01*
Y183500D01*
X216915D01*
X216175Y185287D01*
X214812Y187062D01*
X213037Y188425D01*
X210969Y189281D01*
X208750Y189573D01*
D02*
G37*
G36*
X216915Y146500D02*
X201500D01*
X186085D01*
X186825Y144713D01*
X188188Y142938D01*
X189774Y141721D01*
X189879Y141000D01*
X189774Y140279D01*
X188188Y139062D01*
X186825Y137287D01*
X185969Y135219D01*
X185677Y133000D01*
X185969Y130781D01*
X186825Y128713D01*
X188188Y126938D01*
X189774Y125721D01*
X189879Y125000D01*
X189774Y124279D01*
X188188Y123062D01*
X186877Y121354D01*
X185732D01*
X184451Y122210D01*
X182500Y122598D01*
X180549Y122210D01*
X178895Y121105D01*
X177790Y119451D01*
X177402Y117500D01*
X177790Y115549D01*
X178895Y113895D01*
X180549Y112790D01*
X182500Y112402D01*
X183728Y112646D01*
X186877D01*
X188188Y110938D01*
X189774Y109721D01*
X189879Y109000D01*
X189774Y108279D01*
X188188Y107062D01*
X186825Y105287D01*
X185969Y103219D01*
X185677Y101000D01*
X185969Y98781D01*
X186825Y96713D01*
X188188Y94938D01*
X189774Y93721D01*
X189879Y93000D01*
X189774Y92279D01*
X188188Y91062D01*
X186825Y89287D01*
X186085Y87500D01*
X201500D01*
X216915D01*
X216175Y89287D01*
X214812Y91062D01*
X213226Y92279D01*
X213121Y93000D01*
X213226Y93721D01*
X214812Y94938D01*
X216175Y96713D01*
X217031Y98781D01*
X217323Y101000D01*
X217031Y103219D01*
X216175Y105287D01*
X214812Y107062D01*
X213226Y108279D01*
X213121Y109000D01*
X213226Y109721D01*
X214812Y110938D01*
X216175Y112713D01*
X217031Y114781D01*
X217323Y117000D01*
X217031Y119219D01*
X216175Y121287D01*
X214812Y123062D01*
X213226Y124279D01*
X213121Y125000D01*
X213226Y125721D01*
X214812Y126938D01*
X216175Y128713D01*
X217031Y130781D01*
X217323Y133000D01*
X217031Y135219D01*
X216175Y137287D01*
X214812Y139062D01*
X213226Y140279D01*
X213121Y141000D01*
X213226Y141721D01*
X214812Y142938D01*
X216175Y144713D01*
X216915Y146500D01*
D02*
G37*
G36*
X216915Y178500D02*
X201500D01*
X186085D01*
X186825Y176713D01*
X188188Y174938D01*
X189774Y173721D01*
X189879Y173000D01*
X189774Y172279D01*
X188188Y171062D01*
X186825Y169287D01*
X185969Y167219D01*
X185677Y165000D01*
X185969Y162781D01*
X186825Y160713D01*
X188188Y158938D01*
X189774Y157721D01*
X189879Y157000D01*
X189774Y156279D01*
X188188Y155062D01*
X186825Y153287D01*
X186085Y151500D01*
X201500D01*
X216915D01*
X216175Y153287D01*
X214812Y155062D01*
X213226Y156279D01*
X213121Y157000D01*
X213226Y157721D01*
X214812Y158938D01*
X216175Y160713D01*
X217031Y162781D01*
X217323Y165000D01*
X217031Y167219D01*
X216175Y169287D01*
X214812Y171062D01*
X213226Y172279D01*
X213121Y173000D01*
X213226Y173721D01*
X214812Y174938D01*
X216175Y176713D01*
X216915Y178500D01*
D02*
G37*
G36*
X199000Y189573D02*
X194250D01*
X192031Y189281D01*
X189963Y188425D01*
X188188Y187062D01*
X186825Y185287D01*
X186085Y183500D01*
X199000D01*
Y189573D01*
D02*
G37*
G36*
X199415Y776000D02*
X184000D01*
X168585D01*
X169325Y774213D01*
X170688Y772438D01*
X172274Y771221D01*
X172379Y770500D01*
X172274Y769779D01*
X170688Y768562D01*
X169325Y766787D01*
X168469Y764719D01*
X168177Y762500D01*
X168469Y760281D01*
X169325Y758213D01*
X170688Y756438D01*
X172274Y755221D01*
X172379Y754500D01*
X172274Y753779D01*
X170688Y752562D01*
X169325Y750787D01*
X168585Y749000D01*
X184000D01*
X199415D01*
X198675Y750787D01*
X197312Y752562D01*
X195726Y753779D01*
X195621Y754500D01*
X195726Y755221D01*
X197312Y756438D01*
X198675Y758213D01*
X199531Y760281D01*
X199823Y762500D01*
X199531Y764719D01*
X198675Y766787D01*
X197312Y768562D01*
X195726Y769779D01*
X195621Y770500D01*
X195726Y771221D01*
X197312Y772438D01*
X198675Y774213D01*
X199415Y776000D01*
D02*
G37*
G36*
X172073Y796500D02*
X166000D01*
Y783585D01*
X167787Y784325D01*
X169562Y785688D01*
X170925Y787463D01*
X171781Y789531D01*
X172073Y791750D01*
Y796500D01*
D02*
G37*
G36*
X166000Y814415D02*
Y801500D01*
X172073D01*
Y806250D01*
X171781Y808469D01*
X170925Y810537D01*
X169562Y812312D01*
X167787Y813675D01*
X166000Y814415D01*
D02*
G37*
G36*
X147500Y814823D02*
X145281Y814531D01*
X143213Y813675D01*
X141438Y812312D01*
X140221Y810726D01*
X139500Y810621D01*
X138779Y810726D01*
X137562Y812312D01*
X135787Y813675D01*
X133719Y814531D01*
X131500Y814823D01*
X129281Y814531D01*
X127213Y813675D01*
X125438Y812312D01*
X124221Y810726D01*
X123500Y810621D01*
X122779Y810726D01*
X121562Y812312D01*
X119787Y813675D01*
X117719Y814531D01*
X115500Y814823D01*
X113281Y814531D01*
X111213Y813675D01*
X109438Y812312D01*
X108221Y810726D01*
X107500Y810621D01*
X106779Y810726D01*
X105562Y812312D01*
X103787Y813675D01*
X101719Y814531D01*
X99500Y814823D01*
X97281Y814531D01*
X95213Y813675D01*
X93438Y812312D01*
X92221Y810726D01*
X91500Y810621D01*
X90779Y810726D01*
X89562Y812312D01*
X87787Y813675D01*
X85719Y814531D01*
X83500Y814823D01*
X81281Y814531D01*
X79213Y813675D01*
X77438Y812312D01*
X76221Y810726D01*
X75500Y810621D01*
X74779Y810726D01*
X73562Y812312D01*
X71787Y813675D01*
X69719Y814531D01*
X67500Y814823D01*
X65281Y814531D01*
X63213Y813675D01*
X61438Y812312D01*
X60221Y810726D01*
X59500Y810621D01*
X58779Y810726D01*
X57562Y812312D01*
X55787Y813675D01*
X53719Y814531D01*
X51500Y814823D01*
X49281Y814531D01*
X47213Y813675D01*
X45438Y812312D01*
X44075Y810537D01*
X43219Y808469D01*
X42927Y806250D01*
Y803354D01*
X41370D01*
X41030Y803614D01*
X39327Y804320D01*
X37500Y804560D01*
X35673Y804320D01*
X33970Y803614D01*
X32508Y802492D01*
X31386Y801030D01*
X30680Y799327D01*
X30440Y797500D01*
X30680Y795673D01*
X31386Y793970D01*
X32508Y792507D01*
X33970Y791385D01*
X35673Y790680D01*
X37500Y790440D01*
X39327Y790680D01*
X41030Y791385D01*
X41657Y791866D01*
X41973Y791837D01*
X42988Y791287D01*
X43219Y789531D01*
X44075Y787463D01*
X45438Y785688D01*
X45467Y785665D01*
X45547Y784453D01*
X44335Y784533D01*
X44312Y784562D01*
X42537Y785925D01*
X40469Y786781D01*
X38250Y787073D01*
X23750D01*
X21531Y786781D01*
X19463Y785925D01*
X17688Y784562D01*
X16325Y782787D01*
X15469Y780719D01*
X15177Y778500D01*
X15469Y776281D01*
X16325Y774213D01*
X17688Y772438D01*
X19274Y771221D01*
X19379Y770500D01*
X19274Y769779D01*
X17688Y768562D01*
X16325Y766787D01*
X15469Y764719D01*
X15177Y762500D01*
X15469Y760281D01*
X16325Y758213D01*
X17688Y756438D01*
X19274Y755221D01*
X19379Y754500D01*
X19274Y753779D01*
X17688Y752562D01*
X16325Y750787D01*
X15469Y748719D01*
X15177Y746500D01*
X15469Y744281D01*
X16325Y742213D01*
X17688Y740438D01*
X19274Y739221D01*
X19379Y738500D01*
X19274Y737779D01*
X17688Y736562D01*
X16325Y734787D01*
X15469Y732719D01*
X15177Y730500D01*
X15469Y728281D01*
X16325Y726213D01*
X17688Y724438D01*
X19274Y723221D01*
X19379Y722500D01*
X19274Y721779D01*
X17688Y720562D01*
X16325Y718787D01*
X15469Y716719D01*
X15177Y714500D01*
X15469Y712281D01*
X16325Y710213D01*
X17688Y708438D01*
X19274Y707221D01*
X19379Y706500D01*
X19274Y705779D01*
X17688Y704562D01*
X16325Y702787D01*
X15469Y700719D01*
X15177Y698500D01*
X15469Y696281D01*
X16325Y694213D01*
X17688Y692438D01*
X19274Y691221D01*
X19379Y690500D01*
X19274Y689779D01*
X17688Y688562D01*
X16325Y686787D01*
X15585Y685000D01*
X31000D01*
X46415D01*
X45675Y686787D01*
X44312Y688562D01*
X42726Y689779D01*
X42621Y690500D01*
X42726Y691221D01*
X44312Y692438D01*
X45675Y694213D01*
X46531Y696281D01*
X46823Y698500D01*
X46531Y700719D01*
X45675Y702787D01*
X44312Y704562D01*
X42726Y705779D01*
X42621Y706500D01*
X42726Y707221D01*
X44312Y708438D01*
X45623Y710146D01*
X50017D01*
X50508Y709508D01*
X51970Y708385D01*
X53673Y707680D01*
X55500Y707440D01*
X57327Y707680D01*
X59030Y708385D01*
X60493Y709508D01*
X61614Y710970D01*
X62320Y712673D01*
X62560Y714500D01*
X62320Y716327D01*
X61614Y718030D01*
X60493Y719492D01*
X59030Y720614D01*
X57327Y721320D01*
X55500Y721560D01*
X53673Y721320D01*
X51970Y720614D01*
X50508Y719492D01*
X50017Y718854D01*
X45623D01*
X44312Y720562D01*
X42726Y721779D01*
X42621Y722500D01*
X42726Y723221D01*
X44312Y724438D01*
X45675Y726213D01*
X46531Y728281D01*
X46823Y730500D01*
X46531Y732719D01*
X45675Y734787D01*
X44312Y736562D01*
X42726Y737779D01*
X42621Y738500D01*
X42726Y739221D01*
X44312Y740438D01*
X45675Y742213D01*
X46531Y744281D01*
X46823Y746500D01*
X46531Y748719D01*
X45675Y750787D01*
X44312Y752562D01*
X42726Y753779D01*
X42621Y754500D01*
X42726Y755221D01*
X44312Y756438D01*
X45675Y758213D01*
X46531Y760281D01*
X46823Y762500D01*
X46531Y764719D01*
X45675Y766787D01*
X44312Y768562D01*
X42726Y769779D01*
X42621Y770500D01*
X42726Y771221D01*
X44312Y772438D01*
X45020Y773360D01*
X46375Y773494D01*
X46640Y773406D01*
X47970Y772385D01*
X49673Y771680D01*
X51500Y771440D01*
X53327Y771680D01*
X55030Y772385D01*
X56492Y773508D01*
X57614Y774970D01*
X58320Y776673D01*
X58560Y778500D01*
X58320Y780327D01*
X57614Y782030D01*
X56492Y783492D01*
X56640Y784980D01*
X57562Y785688D01*
X58779Y787274D01*
X59500Y787379D01*
X60221Y787274D01*
X61438Y785688D01*
X63146Y784377D01*
Y782983D01*
X62508Y782492D01*
X61386Y781030D01*
X60680Y779327D01*
X60440Y777500D01*
X60680Y775673D01*
X61386Y773970D01*
X62508Y772507D01*
X63970Y771385D01*
X65673Y770680D01*
X67500Y770440D01*
X69327Y770680D01*
X71030Y771385D01*
X72492Y772507D01*
X73615Y773970D01*
X74320Y775673D01*
X74560Y777500D01*
X74320Y779327D01*
X73615Y781030D01*
X72492Y782492D01*
X71854Y782983D01*
Y784377D01*
X73562Y785688D01*
X74779Y787274D01*
X75500Y787379D01*
X76221Y787274D01*
X77438Y785688D01*
X79213Y784325D01*
X81281Y783469D01*
X83500Y783177D01*
X85719Y783469D01*
X87787Y784325D01*
X89562Y785688D01*
X90779Y787274D01*
X91500Y787379D01*
X92221Y787274D01*
X93438Y785688D01*
X95213Y784325D01*
X97281Y783469D01*
X99500Y783177D01*
X101719Y783469D01*
X103787Y784325D01*
X105562Y785688D01*
X106779Y787274D01*
X107500Y787379D01*
X108221Y787274D01*
X109438Y785688D01*
X111213Y784325D01*
X113281Y783469D01*
X115500Y783177D01*
X117719Y783469D01*
X119787Y784325D01*
X121562Y785688D01*
X122779Y787274D01*
X123500Y787379D01*
X124221Y787274D01*
X125438Y785688D01*
X127146Y784377D01*
Y782022D01*
X126385Y781030D01*
X125680Y779327D01*
X125440Y777500D01*
X125680Y775673D01*
X126385Y773970D01*
X127508Y772507D01*
X128970Y771385D01*
X130673Y770680D01*
X132500Y770440D01*
X134327Y770680D01*
X136030Y771385D01*
X137493Y772507D01*
X138615Y773970D01*
X139320Y775673D01*
X139360Y775974D01*
X140640D01*
X140680Y775673D01*
X141385Y773970D01*
X142508Y772507D01*
X143970Y771385D01*
X145673Y770680D01*
X147500Y770440D01*
X149327Y770680D01*
X151030Y771385D01*
X152493Y772507D01*
X153615Y773970D01*
X154320Y775673D01*
X154560Y777500D01*
X154320Y779327D01*
X153615Y781030D01*
X152493Y782492D01*
X151854Y782983D01*
Y784377D01*
X153562Y785688D01*
X154779Y787274D01*
X155500Y787379D01*
X156221Y787274D01*
X157438Y785688D01*
X159213Y784325D01*
X161000Y783585D01*
Y799000D01*
Y814415D01*
X159213Y813675D01*
X157438Y812312D01*
X156221Y810726D01*
X155500Y810621D01*
X154779Y810726D01*
X153562Y812312D01*
X151787Y813675D01*
X149719Y814531D01*
X147500Y814823D01*
D02*
G37*
G36*
X191250Y787073D02*
X186500D01*
Y781000D01*
X199415D01*
X198675Y782787D01*
X197312Y784562D01*
X195537Y785925D01*
X193469Y786781D01*
X191250Y787073D01*
D02*
G37*
G36*
X181500D02*
X176750D01*
X174531Y786781D01*
X172463Y785925D01*
X170688Y784562D01*
X169325Y782787D01*
X168585Y781000D01*
X181500D01*
Y787073D01*
D02*
G37*
G36*
X46415Y680000D02*
X31000D01*
X15585D01*
X16325Y678213D01*
X17688Y676438D01*
X19274Y675221D01*
X19379Y674500D01*
X19274Y673779D01*
X17688Y672562D01*
X16325Y670787D01*
X15469Y668719D01*
X15177Y666500D01*
X15469Y664281D01*
X16325Y662213D01*
X17688Y660438D01*
X19463Y659075D01*
X21531Y658219D01*
X23750Y657927D01*
X38250D01*
X40469Y658219D01*
X42537Y659075D01*
X44312Y660438D01*
X45675Y662213D01*
X46531Y664281D01*
X46823Y666500D01*
X46531Y668719D01*
X45675Y670787D01*
X44312Y672562D01*
X42726Y673779D01*
X42621Y674500D01*
X42726Y675221D01*
X44312Y676438D01*
X45675Y678213D01*
X46415Y680000D01*
D02*
G37*
G36*
X199415D02*
X184000D01*
X168585D01*
X169325Y678213D01*
X170688Y676438D01*
X172274Y675221D01*
X172379Y674500D01*
X172274Y673779D01*
X170688Y672562D01*
X169980Y671640D01*
X168633Y671506D01*
X168350Y671602D01*
X167030Y672615D01*
X165327Y673320D01*
X163500Y673560D01*
X161673Y673320D01*
X159970Y672615D01*
X158508Y671492D01*
X157386Y670030D01*
X156680Y668327D01*
X156440Y666500D01*
X156680Y664673D01*
X157386Y662970D01*
X158508Y661508D01*
X158360Y660020D01*
X157438Y659312D01*
X156221Y657726D01*
X155500Y657621D01*
X154779Y657726D01*
X153562Y659312D01*
X151787Y660675D01*
X149719Y661531D01*
X147500Y661823D01*
X145281Y661531D01*
X143213Y660675D01*
X141438Y659312D01*
X140221Y657726D01*
X139500Y657621D01*
X138779Y657726D01*
X137562Y659312D01*
X135787Y660675D01*
X134000Y661415D01*
Y646000D01*
Y630585D01*
X135787Y631325D01*
X137562Y632688D01*
X138779Y634274D01*
X139500Y634379D01*
X140221Y634274D01*
X141438Y632688D01*
X143213Y631325D01*
X145281Y630469D01*
X147500Y630177D01*
X149719Y630469D01*
X151787Y631325D01*
X153562Y632688D01*
X154779Y634274D01*
X155500Y634379D01*
X156221Y634274D01*
X157438Y632688D01*
X159213Y631325D01*
X161281Y630469D01*
X163500Y630177D01*
X165719Y630469D01*
X167787Y631325D01*
X169562Y632688D01*
X170925Y634463D01*
X171781Y636531D01*
X172073Y638750D01*
Y653250D01*
X171781Y655469D01*
X170925Y657537D01*
X169562Y659312D01*
X169533Y659335D01*
X169453Y660547D01*
X170665Y660467D01*
X170688Y660438D01*
X172463Y659075D01*
X174531Y658219D01*
X176750Y657927D01*
X191250D01*
X193469Y658219D01*
X195537Y659075D01*
X197312Y660438D01*
X198675Y662213D01*
X199531Y664281D01*
X199823Y666500D01*
X199531Y668719D01*
X198675Y670787D01*
X197312Y672562D01*
X195726Y673779D01*
X195621Y674500D01*
X195726Y675221D01*
X197312Y676438D01*
X198675Y678213D01*
X199415Y680000D01*
D02*
G37*
G36*
Y744000D02*
X184000D01*
X168585D01*
X169325Y742213D01*
X170688Y740438D01*
X172274Y739221D01*
X172379Y738500D01*
X172274Y737779D01*
X170688Y736562D01*
X169325Y734787D01*
X168469Y732719D01*
X168177Y730500D01*
X168469Y728281D01*
X169325Y726213D01*
X170688Y724438D01*
X172274Y723221D01*
X172379Y722500D01*
X172274Y721779D01*
X170688Y720562D01*
X169377Y718854D01*
X165453D01*
X164327Y719320D01*
X162500Y719560D01*
X160673Y719320D01*
X158970Y718615D01*
X157508Y717492D01*
X156385Y716030D01*
X155680Y714327D01*
X155440Y712500D01*
X155680Y710673D01*
X156385Y708970D01*
X157508Y707508D01*
X158970Y706385D01*
X160673Y705680D01*
X162500Y705440D01*
X164327Y705680D01*
X166030Y706385D01*
X167493Y707508D01*
X168615Y708970D01*
X168637Y709024D01*
X170091Y709215D01*
X170688Y708438D01*
X172274Y707221D01*
X172379Y706500D01*
X172274Y705779D01*
X170688Y704562D01*
X169325Y702787D01*
X168469Y700719D01*
X168177Y698500D01*
X168469Y696281D01*
X169325Y694213D01*
X170688Y692438D01*
X172274Y691221D01*
X172379Y690500D01*
X172274Y689779D01*
X170688Y688562D01*
X169325Y686787D01*
X168585Y685000D01*
X184000D01*
X199415D01*
X198675Y686787D01*
X197312Y688562D01*
X195726Y689779D01*
X195621Y690500D01*
X195726Y691221D01*
X197312Y692438D01*
X198675Y694213D01*
X199531Y696281D01*
X199823Y698500D01*
X199531Y700719D01*
X198675Y702787D01*
X197312Y704562D01*
X195726Y705779D01*
X195621Y706500D01*
X195726Y707221D01*
X197312Y708438D01*
X198675Y710213D01*
X199531Y712281D01*
X199823Y714500D01*
X199531Y716719D01*
X198675Y718787D01*
X197312Y720562D01*
X195726Y721779D01*
X195621Y722500D01*
X195726Y723221D01*
X197312Y724438D01*
X198675Y726213D01*
X199531Y728281D01*
X199823Y730500D01*
X199531Y732719D01*
X198675Y734787D01*
X197312Y736562D01*
X195726Y737779D01*
X195621Y738500D01*
X195726Y739221D01*
X197312Y740438D01*
X198675Y742213D01*
X199415Y744000D01*
D02*
G37*
G36*
X67500Y669560D02*
X65673Y669320D01*
X63970Y668615D01*
X62508Y667492D01*
X61386Y666030D01*
X60680Y664327D01*
X60440Y662500D01*
X60680Y660673D01*
X61312Y659148D01*
X60221Y657726D01*
X59500Y657621D01*
X58779Y657726D01*
X57562Y659312D01*
X55787Y660675D01*
X53719Y661531D01*
X51500Y661823D01*
X49281Y661531D01*
X47213Y660675D01*
X45438Y659312D01*
X44075Y657537D01*
X43219Y655469D01*
X42927Y653250D01*
Y638750D01*
X43219Y636531D01*
X44075Y634463D01*
X45438Y632688D01*
X47213Y631325D01*
X49281Y630469D01*
X51500Y630177D01*
X53719Y630469D01*
X55787Y631325D01*
X57562Y632688D01*
X58779Y634274D01*
X59500Y634379D01*
X60221Y634274D01*
X61438Y632688D01*
X63213Y631325D01*
X65281Y630469D01*
X67500Y630177D01*
X69719Y630469D01*
X71787Y631325D01*
X73562Y632688D01*
X74779Y634274D01*
X75500Y634379D01*
X76221Y634274D01*
X77438Y632688D01*
X79213Y631325D01*
X81281Y630469D01*
X83500Y630177D01*
X85719Y630469D01*
X87787Y631325D01*
X89562Y632688D01*
X90779Y634274D01*
X91500Y634379D01*
X92221Y634274D01*
X93438Y632688D01*
X95213Y631325D01*
X97281Y630469D01*
X99500Y630177D01*
X101719Y630469D01*
X103787Y631325D01*
X105562Y632688D01*
X106779Y634274D01*
X107500Y634379D01*
X108221Y634274D01*
X109438Y632688D01*
X111213Y631325D01*
X113281Y630469D01*
X115500Y630177D01*
X117719Y630469D01*
X119787Y631325D01*
X121562Y632688D01*
X122779Y634274D01*
X123500Y634379D01*
X124221Y634274D01*
X125438Y632688D01*
X127213Y631325D01*
X129000Y630585D01*
Y646000D01*
Y661415D01*
X127213Y660675D01*
X125438Y659312D01*
X124221Y657726D01*
X123500Y657621D01*
X122779Y657726D01*
X121562Y659312D01*
X119787Y660675D01*
X117719Y661531D01*
X115500Y661823D01*
X113281Y661531D01*
X111213Y660675D01*
X109438Y659312D01*
X108221Y657726D01*
X107500Y657621D01*
X106779Y657726D01*
X105562Y659312D01*
X103787Y660675D01*
X101719Y661531D01*
X99500Y661823D01*
X97281Y661531D01*
X95213Y660675D01*
X93438Y659312D01*
X92221Y657726D01*
X91500Y657621D01*
X90779Y657726D01*
X89562Y659312D01*
X87787Y660675D01*
X85719Y661531D01*
X83500Y661823D01*
X81281Y661531D01*
X79213Y660675D01*
X77438Y659312D01*
X76221Y657726D01*
X75500Y657621D01*
X74779Y657726D01*
X73688Y659148D01*
X74320Y660673D01*
X74560Y662500D01*
X74320Y664327D01*
X73615Y666030D01*
X72492Y667492D01*
X71030Y668615D01*
X69327Y669320D01*
X67500Y669560D01*
D02*
G37*
G36*
X724415Y464000D02*
X709000D01*
X693585D01*
X694325Y462213D01*
X695688Y460438D01*
X697274Y459221D01*
X697379Y458500D01*
X697274Y457779D01*
X695688Y456562D01*
X694325Y454787D01*
X693469Y452719D01*
X693177Y450500D01*
X693469Y448281D01*
X694325Y446213D01*
X695688Y444438D01*
X697274Y443221D01*
X697379Y442500D01*
X697274Y441779D01*
X695688Y440562D01*
X694325Y438787D01*
X693469Y436719D01*
X693177Y434500D01*
X693469Y432281D01*
X694325Y430213D01*
X695688Y428438D01*
X697274Y427221D01*
X697379Y426500D01*
X697274Y425779D01*
X695688Y424562D01*
X694325Y422787D01*
X693469Y420719D01*
X693177Y418500D01*
X693469Y416281D01*
X694325Y414213D01*
X695688Y412438D01*
X697274Y411221D01*
X697379Y410500D01*
X697274Y409779D01*
X695688Y408562D01*
X694325Y406787D01*
X693585Y405000D01*
X709000D01*
X724415D01*
X723675Y406787D01*
X722312Y408562D01*
X720726Y409779D01*
X720621Y410500D01*
X720726Y411221D01*
X722312Y412438D01*
X723675Y414213D01*
X724531Y416281D01*
X724823Y418500D01*
X724531Y420719D01*
X723675Y422787D01*
X722312Y424562D01*
X720726Y425779D01*
X720621Y426500D01*
X720726Y427221D01*
X722312Y428438D01*
X723143Y429520D01*
X723970Y428885D01*
X725673Y428180D01*
X727500Y427940D01*
X729327Y428180D01*
X731030Y428885D01*
X732493Y430008D01*
X733615Y431470D01*
X734320Y433173D01*
X734560Y435000D01*
X734320Y436827D01*
X733615Y438530D01*
X732493Y439992D01*
X731030Y441115D01*
X729327Y441820D01*
X727500Y442060D01*
X725673Y441820D01*
X723970Y441115D01*
X722660Y440109D01*
X722312Y440562D01*
X720726Y441779D01*
X720621Y442500D01*
X720726Y443221D01*
X722312Y444438D01*
X723675Y446213D01*
X724531Y448281D01*
X724823Y450500D01*
X724531Y452719D01*
X723675Y454787D01*
X722312Y456562D01*
X720726Y457779D01*
X720621Y458500D01*
X720726Y459221D01*
X722312Y460438D01*
X723675Y462213D01*
X724415Y464000D01*
D02*
G37*
G36*
X450000Y448000D02*
X445250D01*
Y443250D01*
X450000D01*
Y448000D01*
D02*
G37*
G36*
X724415Y400000D02*
X709000D01*
X693585D01*
X694325Y398213D01*
X695688Y396438D01*
X697274Y395221D01*
X697379Y394500D01*
X697274Y393779D01*
X695688Y392562D01*
X694325Y390787D01*
X693469Y388719D01*
X693177Y386500D01*
X693469Y384281D01*
X694325Y382213D01*
X695688Y380438D01*
X697463Y379075D01*
X699531Y378219D01*
X701750Y377927D01*
X716250D01*
X718469Y378219D01*
X720537Y379075D01*
X722312Y380438D01*
X723675Y382213D01*
X724531Y384281D01*
X724823Y386500D01*
X724531Y388719D01*
X723675Y390787D01*
X722312Y392562D01*
X720726Y393779D01*
X720621Y394500D01*
X720726Y395221D01*
X722312Y396438D01*
X723675Y398213D01*
X724415Y400000D01*
D02*
G37*
G36*
X571415Y400000D02*
X556000D01*
X540585D01*
X541325Y398213D01*
X542688Y396438D01*
X544274Y395221D01*
X544379Y394500D01*
X544274Y393779D01*
X542688Y392562D01*
X541325Y390787D01*
X540469Y388719D01*
X540177Y386500D01*
X540469Y384281D01*
X541325Y382213D01*
X542688Y380438D01*
X544463Y379075D01*
X546531Y378219D01*
X548750Y377927D01*
X563250D01*
X565469Y378219D01*
X567537Y379075D01*
X569312Y380438D01*
X570675Y382213D01*
X571531Y384281D01*
X571823Y386500D01*
X571531Y388719D01*
X570675Y390787D01*
X569312Y392562D01*
X567726Y393779D01*
X567621Y394500D01*
X567726Y395221D01*
X569312Y396438D01*
X570675Y398213D01*
X571415Y400000D01*
D02*
G37*
G36*
X790000Y446095D02*
X787128Y445717D01*
X784453Y444608D01*
X782155Y442845D01*
X780392Y440547D01*
X779283Y437872D01*
X778905Y435000D01*
X779283Y432128D01*
X780392Y429453D01*
X782155Y427155D01*
X784453Y425392D01*
X787128Y424283D01*
X790000Y423905D01*
X792872Y424283D01*
X795547Y425392D01*
X797845Y427155D01*
X799609Y429453D01*
X800717Y432128D01*
X801095Y435000D01*
X800717Y437872D01*
X799609Y440547D01*
X797845Y442845D01*
X795547Y444608D01*
X792872Y445717D01*
X790000Y446095D01*
D02*
G37*
G36*
X685000Y392060D02*
X683173Y391820D01*
X681470Y391115D01*
X680008Y389992D01*
X678885Y388530D01*
X678180Y386827D01*
X677940Y385000D01*
X678180Y383173D01*
X678885Y381470D01*
X680008Y380008D01*
X680514Y379619D01*
X680515Y378496D01*
X679079Y378639D01*
X678562Y379312D01*
X676787Y380675D01*
X674719Y381531D01*
X672500Y381823D01*
X670281Y381531D01*
X668213Y380675D01*
X666438Y379312D01*
X665221Y377726D01*
X664500Y377621D01*
X663779Y377726D01*
X662562Y379312D01*
X660787Y380675D01*
X659000Y381415D01*
Y366000D01*
Y350585D01*
X660787Y351325D01*
X662562Y352688D01*
X663779Y354274D01*
X664500Y354379D01*
X665221Y354274D01*
X666438Y352688D01*
X668213Y351325D01*
X670281Y350469D01*
X672500Y350177D01*
X674719Y350469D01*
X676787Y351325D01*
X678562Y352688D01*
X679779Y354274D01*
X680500Y354379D01*
X681221Y354274D01*
X682438Y352688D01*
X684213Y351325D01*
X686281Y350469D01*
X688500Y350177D01*
X690719Y350469D01*
X692787Y351325D01*
X694562Y352688D01*
X695925Y354463D01*
X696781Y356531D01*
X697073Y358750D01*
Y373250D01*
X696781Y375469D01*
X695925Y377537D01*
X694562Y379312D01*
X692854Y380623D01*
Y381500D01*
X692522Y383166D01*
X691935Y384045D01*
X692060Y385000D01*
X691820Y386827D01*
X691115Y388530D01*
X689992Y389992D01*
X688530Y391115D01*
X686827Y391820D01*
X685000Y392060D01*
D02*
G37*
G36*
X724415Y496000D02*
X709000D01*
X693585D01*
X694325Y494213D01*
X695688Y492438D01*
X697274Y491221D01*
X697379Y490500D01*
X697274Y489779D01*
X695688Y488562D01*
X694325Y486787D01*
X693469Y484719D01*
X693177Y482500D01*
X693469Y480281D01*
X694325Y478213D01*
X695688Y476438D01*
X697274Y475221D01*
X697379Y474500D01*
X697274Y473779D01*
X695688Y472562D01*
X694325Y470787D01*
X693585Y469000D01*
X709000D01*
X724415D01*
X723675Y470787D01*
X722312Y472562D01*
X720726Y473779D01*
X720621Y474500D01*
X720726Y475221D01*
X722312Y476438D01*
X723675Y478213D01*
X724531Y480281D01*
X724823Y482500D01*
X724531Y484719D01*
X723675Y486787D01*
X722312Y488562D01*
X720726Y489779D01*
X720621Y490500D01*
X720726Y491221D01*
X722312Y492438D01*
X723675Y494213D01*
X724415Y496000D01*
D02*
G37*
G36*
X787500Y510483D02*
X786606Y510365D01*
X783444Y509055D01*
X780728Y506972D01*
X778644Y504256D01*
X777335Y501094D01*
X777217Y500200D01*
X787500D01*
Y510483D01*
D02*
G37*
G36*
X792500D02*
Y500200D01*
X802783D01*
X802665Y501094D01*
X801356Y504256D01*
X799272Y506972D01*
X796556Y509055D01*
X793394Y510365D01*
X792500Y510483D01*
D02*
G37*
G36*
X479750Y471750D02*
X465250D01*
Y468854D01*
X459750D01*
Y471750D01*
X445250D01*
Y457250D01*
Y453000D01*
X459750D01*
Y457250D01*
Y460146D01*
X465250D01*
Y457250D01*
Y443250D01*
X474979D01*
X475500Y443146D01*
X479517D01*
X480008Y442508D01*
X481470Y441385D01*
X483173Y440680D01*
X485000Y440440D01*
X486827Y440680D01*
X488530Y441385D01*
X489992Y442508D01*
X491115Y443970D01*
X491820Y445673D01*
X492060Y447500D01*
X491820Y449327D01*
X491115Y451030D01*
X489992Y452492D01*
X488530Y453615D01*
X486827Y454320D01*
X485000Y454560D01*
X483173Y454320D01*
X481470Y453615D01*
X481020Y453269D01*
X479750Y453896D01*
Y457250D01*
Y471750D01*
D02*
G37*
G36*
X459750Y448000D02*
X455000D01*
Y443250D01*
X459750D01*
Y448000D01*
D02*
G37*
G36*
X555000Y519560D02*
X553173Y519320D01*
X551470Y518615D01*
X550008Y517492D01*
X548885Y516030D01*
X548180Y514327D01*
X547940Y512500D01*
X548180Y510673D01*
X548885Y508970D01*
X549366Y508343D01*
X548750Y507073D01*
X546531Y506781D01*
X544463Y505925D01*
X542688Y504562D01*
X541325Y502787D01*
X540469Y500719D01*
X540177Y498500D01*
X540469Y496281D01*
X541325Y494213D01*
X542688Y492438D01*
X544274Y491221D01*
X544379Y490500D01*
X544274Y489779D01*
X542688Y488562D01*
X541325Y486787D01*
X540469Y484719D01*
X540177Y482500D01*
X540469Y480281D01*
X541325Y478213D01*
X542688Y476438D01*
X544274Y475221D01*
X544379Y474500D01*
X544274Y473779D01*
X542688Y472562D01*
X541325Y470787D01*
X540469Y468719D01*
X540177Y466500D01*
X540469Y464281D01*
X541325Y462213D01*
X542688Y460438D01*
X544274Y459221D01*
X544379Y458500D01*
X544274Y457779D01*
X542688Y456562D01*
X541325Y454787D01*
X540469Y452719D01*
X540177Y450500D01*
X540469Y448281D01*
X541325Y446213D01*
X542688Y444438D01*
X544274Y443221D01*
X544379Y442500D01*
X544274Y441779D01*
X542688Y440562D01*
X541325Y438787D01*
X540469Y436719D01*
X540177Y434500D01*
X540469Y432281D01*
X541325Y430213D01*
X542688Y428438D01*
X544274Y427221D01*
X544379Y426500D01*
X544274Y425779D01*
X542688Y424562D01*
X541325Y422787D01*
X540469Y420719D01*
X540177Y418500D01*
X540469Y416281D01*
X541325Y414213D01*
X542688Y412438D01*
X544274Y411221D01*
X544379Y410500D01*
X544274Y409779D01*
X542688Y408562D01*
X541325Y406787D01*
X540585Y405000D01*
X556000D01*
X571415D01*
X570675Y406787D01*
X569312Y408562D01*
X567726Y409779D01*
X567621Y410500D01*
X567726Y411221D01*
X569312Y412438D01*
X570675Y414213D01*
X571531Y416281D01*
X571823Y418500D01*
X571531Y420719D01*
X570675Y422787D01*
X569312Y424562D01*
X567726Y425779D01*
X567621Y426500D01*
X567726Y427221D01*
X569312Y428438D01*
X570623Y430146D01*
X572401D01*
X572508Y430008D01*
X573970Y428885D01*
X575673Y428180D01*
X577500Y427940D01*
X579327Y428180D01*
X581030Y428885D01*
X582492Y430008D01*
X583615Y431470D01*
X584320Y433173D01*
X584560Y435000D01*
X584320Y436827D01*
X583615Y438530D01*
X582492Y439992D01*
X581030Y441115D01*
X579327Y441820D01*
X577500Y442060D01*
X575673Y441820D01*
X573970Y441115D01*
X572508Y439992D01*
X571785Y439051D01*
X570472D01*
X569312Y440562D01*
X567726Y441779D01*
X567621Y442500D01*
X567726Y443221D01*
X569312Y444438D01*
X570675Y446213D01*
X571531Y448281D01*
X571823Y450500D01*
X571531Y452719D01*
X570675Y454787D01*
X569312Y456562D01*
X567726Y457779D01*
X567621Y458500D01*
X567726Y459221D01*
X569312Y460438D01*
X570623Y462146D01*
X575646D01*
Y459984D01*
X575290Y459451D01*
X574902Y457500D01*
X575290Y455549D01*
X576395Y453895D01*
X578049Y452790D01*
X580000Y452402D01*
X581951Y452790D01*
X583605Y453895D01*
X584710Y455549D01*
X585098Y457500D01*
X584710Y459451D01*
X584354Y459984D01*
Y465500D01*
X584022Y467166D01*
X583078Y468578D01*
X582079Y469579D01*
X580666Y470522D01*
X579000Y470854D01*
X570623D01*
X569312Y472562D01*
X567726Y473779D01*
X567621Y474500D01*
X567726Y475221D01*
X569312Y476438D01*
X570675Y478213D01*
X571531Y480281D01*
X571823Y482500D01*
X571531Y484719D01*
X570675Y486787D01*
X569312Y488562D01*
X567726Y489779D01*
X567621Y490500D01*
X567726Y491221D01*
X569312Y492438D01*
X570675Y494213D01*
X571531Y496281D01*
X571823Y498500D01*
X571531Y500719D01*
X570675Y502787D01*
X569312Y504562D01*
X567537Y505925D01*
X565469Y506781D01*
X563250Y507073D01*
X561133D01*
X560634Y508343D01*
X561115Y508970D01*
X561820Y510673D01*
X562060Y512500D01*
X561820Y514327D01*
X561115Y516030D01*
X559992Y517492D01*
X558530Y518615D01*
X556827Y519320D01*
X555000Y519560D01*
D02*
G37*
G36*
X802783Y495200D02*
X790000D01*
X777217D01*
X777335Y494306D01*
X778644Y491144D01*
X780728Y488428D01*
X783150Y486570D01*
X782809Y485300D01*
X777000D01*
Y459300D01*
X803000D01*
Y485300D01*
X797191D01*
X796850Y486570D01*
X799272Y488428D01*
X801356Y491144D01*
X802665Y494306D01*
X802783Y495200D01*
D02*
G37*
G36*
X592500Y392060D02*
X590673Y391820D01*
X588970Y391115D01*
X587508Y389992D01*
X586385Y388530D01*
X585680Y386827D01*
X585440Y385000D01*
X585680Y383173D01*
X586385Y381470D01*
X587447Y380087D01*
X586438Y379312D01*
X585221Y377726D01*
X584500Y377621D01*
X583779Y377726D01*
X582562Y379312D01*
X580787Y380675D01*
X578719Y381531D01*
X576500Y381823D01*
X574281Y381531D01*
X572213Y380675D01*
X570438Y379312D01*
X569075Y377537D01*
X568219Y375469D01*
X567927Y373250D01*
Y358750D01*
X568219Y356531D01*
X569075Y354463D01*
X570438Y352688D01*
X572213Y351325D01*
X574281Y350469D01*
X576500Y350177D01*
X578719Y350469D01*
X580787Y351325D01*
X582562Y352688D01*
X583779Y354274D01*
X584500Y354379D01*
X585221Y354274D01*
X586438Y352688D01*
X588213Y351325D01*
X590281Y350469D01*
X592500Y350177D01*
X594719Y350469D01*
X596787Y351325D01*
X598562Y352688D01*
X599779Y354274D01*
X600500Y354379D01*
X601221Y354274D01*
X602438Y352688D01*
X604213Y351325D01*
X606281Y350469D01*
X608500Y350177D01*
X610719Y350469D01*
X612787Y351325D01*
X614562Y352688D01*
X615779Y354274D01*
X616500Y354379D01*
X617221Y354274D01*
X618438Y352688D01*
X620213Y351325D01*
X622281Y350469D01*
X624500Y350177D01*
X626719Y350469D01*
X628787Y351325D01*
X630562Y352688D01*
X631779Y354274D01*
X632500Y354379D01*
X633221Y354274D01*
X634438Y352688D01*
X636213Y351325D01*
X638281Y350469D01*
X640500Y350177D01*
X642719Y350469D01*
X644787Y351325D01*
X646562Y352688D01*
X647779Y354274D01*
X648500Y354379D01*
X649221Y354274D01*
X650438Y352688D01*
X652213Y351325D01*
X654000Y350585D01*
Y366000D01*
Y381415D01*
X652213Y380675D01*
X650438Y379312D01*
X649221Y377726D01*
X648500Y377621D01*
X647779Y377726D01*
X646562Y379312D01*
X644787Y380675D01*
X642719Y381531D01*
X640500Y381823D01*
X638281Y381531D01*
X636213Y380675D01*
X634438Y379312D01*
X633221Y377726D01*
X632500Y377621D01*
X631779Y377726D01*
X630562Y379312D01*
X628787Y380675D01*
X626719Y381531D01*
X624500Y381823D01*
X622281Y381531D01*
X620213Y380675D01*
X618438Y379312D01*
X617221Y377726D01*
X616500Y377621D01*
X615779Y377726D01*
X614562Y379312D01*
X612787Y380675D01*
X610719Y381531D01*
X608500Y381823D01*
X606281Y381531D01*
X604213Y380675D01*
X602438Y379312D01*
X601221Y377726D01*
X600500Y377621D01*
X599779Y377726D01*
X598562Y379312D01*
X597553Y380087D01*
X598615Y381470D01*
X599320Y383173D01*
X599560Y385000D01*
X599320Y386827D01*
X598615Y388530D01*
X597492Y389992D01*
X596030Y391115D01*
X594327Y391820D01*
X592500Y392060D01*
D02*
G37*
G36*
X832500Y110587D02*
X828971Y110239D01*
X825578Y109210D01*
X822451Y107539D01*
X819710Y105289D01*
X817461Y102549D01*
X815790Y99422D01*
X814760Y96029D01*
X814413Y92500D01*
X814760Y88971D01*
X815790Y85578D01*
X817461Y82451D01*
X819710Y79710D01*
X822451Y77461D01*
X825578Y75790D01*
X828971Y74760D01*
X832500Y74413D01*
X836029Y74760D01*
X839422Y75790D01*
X842549Y77461D01*
X845290Y79710D01*
X847539Y82451D01*
X849210Y85578D01*
X850239Y88971D01*
X850587Y92500D01*
X850239Y96029D01*
X849210Y99422D01*
X847539Y102549D01*
X845290Y105289D01*
X842549Y107539D01*
X839422Y109210D01*
X836029Y110239D01*
X832500Y110587D01*
D02*
G37*
G36*
X432500D02*
X428971Y110239D01*
X425578Y109210D01*
X422451Y107539D01*
X419711Y105289D01*
X417461Y102549D01*
X415790Y99422D01*
X414761Y96029D01*
X414413Y92500D01*
X414761Y88971D01*
X415790Y85578D01*
X417461Y82451D01*
X419711Y79710D01*
X422451Y77461D01*
X425578Y75790D01*
X428971Y74760D01*
X432500Y74413D01*
X436029Y74760D01*
X439422Y75790D01*
X442549Y77461D01*
X445289Y79710D01*
X447539Y82451D01*
X449210Y85578D01*
X450239Y88971D01*
X450587Y92500D01*
X450239Y96029D01*
X449210Y99422D01*
X447539Y102549D01*
X445289Y105289D01*
X442549Y107539D01*
X439422Y109210D01*
X436029Y110239D01*
X432500Y110587D01*
D02*
G37*
G36*
X666000Y758000D02*
X660250D01*
Y746500D01*
X666000D01*
Y758000D01*
D02*
G37*
G36*
X684750D02*
X679000D01*
Y746500D01*
X684750D01*
Y758000D01*
D02*
G37*
G36*
X695500D02*
X689750D01*
Y746500D01*
X695500D01*
Y758000D01*
D02*
G37*
G36*
X655250D02*
X649500D01*
Y746500D01*
X655250D01*
Y758000D01*
D02*
G37*
G36*
Y741500D02*
X649500D01*
Y730000D01*
X655250D01*
Y741500D01*
D02*
G37*
G36*
X695500Y741500D02*
X689750D01*
Y730000D01*
X695500D01*
Y741500D01*
D02*
G37*
G36*
X684750D02*
X679000D01*
Y736000D01*
X666000D01*
Y741500D01*
X660250D01*
Y730000D01*
X665500D01*
Y725459D01*
X665440Y725000D01*
Y655500D01*
X664150D01*
Y618500D01*
X665440D01*
Y572000D01*
X665680Y570173D01*
X666250Y568797D01*
Y565750D01*
X667926D01*
X668441Y564480D01*
X668204Y564250D01*
X666250D01*
Y561203D01*
X665680Y559827D01*
X665440Y558000D01*
Y530198D01*
X664170Y529945D01*
X663925Y530537D01*
X662562Y532312D01*
X660787Y533675D01*
X658719Y534531D01*
X656500Y534823D01*
X654281Y534531D01*
X652213Y533675D01*
X650438Y532312D01*
X649221Y530726D01*
X648500Y530621D01*
X647779Y530726D01*
X646562Y532312D01*
X644787Y533675D01*
X642719Y534531D01*
X640500Y534823D01*
X638281Y534531D01*
X636213Y533675D01*
X634438Y532312D01*
X633221Y530726D01*
X632500Y530621D01*
X631779Y530726D01*
X630562Y532312D01*
X628787Y533675D01*
X626719Y534531D01*
X624500Y534823D01*
X622281Y534531D01*
X620213Y533675D01*
X618438Y532312D01*
X617221Y530726D01*
X616500Y530621D01*
X615779Y530726D01*
X614562Y532312D01*
X612787Y533675D01*
X610719Y534531D01*
X608500Y534823D01*
X606281Y534531D01*
X604213Y533675D01*
X602438Y532312D01*
X601221Y530726D01*
X600500Y530621D01*
X599779Y530726D01*
X598562Y532312D01*
X596787Y533675D01*
X594719Y534531D01*
X592500Y534823D01*
X590281Y534531D01*
X588213Y533675D01*
X586438Y532312D01*
X585221Y530726D01*
X584500Y530621D01*
X583779Y530726D01*
X582562Y532312D01*
X582222Y532574D01*
X582085Y534279D01*
X582615Y534970D01*
X583320Y536673D01*
X583560Y538500D01*
X583320Y540327D01*
X582615Y542030D01*
X581493Y543492D01*
X580030Y544614D01*
X578327Y545320D01*
X576500Y545560D01*
X574673Y545320D01*
X572970Y544614D01*
X571508Y543492D01*
X570386Y542030D01*
X569680Y540327D01*
X569440Y538500D01*
X569680Y536673D01*
X570386Y534970D01*
X570915Y534279D01*
X570778Y532574D01*
X570438Y532312D01*
X569075Y530537D01*
X568219Y528469D01*
X567927Y526250D01*
Y511750D01*
X568219Y509531D01*
X569075Y507463D01*
X570438Y505688D01*
X572213Y504325D01*
X574281Y503469D01*
X576500Y503177D01*
X578719Y503469D01*
X580787Y504325D01*
X582562Y505688D01*
X583779Y507274D01*
X584500Y507379D01*
X585221Y507274D01*
X586438Y505688D01*
X588003Y504487D01*
X586885Y503030D01*
X586180Y501327D01*
X585940Y499500D01*
X586180Y497673D01*
X586885Y495970D01*
X588008Y494507D01*
X589470Y493386D01*
X591173Y492680D01*
X593000Y492440D01*
X594827Y492680D01*
X596530Y493386D01*
X597993Y494507D01*
X599114Y495970D01*
X599820Y497673D01*
X600060Y499500D01*
X599820Y501327D01*
X599114Y503030D01*
X597993Y504492D01*
Y505251D01*
X598562Y505688D01*
X599779Y507274D01*
X600500Y507379D01*
X601221Y507274D01*
X602438Y505688D01*
X604213Y504325D01*
X606281Y503469D01*
X608500Y503177D01*
X610719Y503469D01*
X612787Y504325D01*
X614562Y505688D01*
X615779Y507274D01*
X616500Y507379D01*
X617221Y507274D01*
X618438Y505688D01*
X620213Y504325D01*
X622281Y503469D01*
X624500Y503177D01*
X626719Y503469D01*
X628787Y504325D01*
X630562Y505688D01*
X631779Y507274D01*
X632500Y507379D01*
X633221Y507274D01*
X634438Y505688D01*
X636213Y504325D01*
X638281Y503469D01*
X640500Y503177D01*
X642719Y503469D01*
X644787Y504325D01*
X646562Y505688D01*
X647779Y507274D01*
X648500Y507379D01*
X649221Y507274D01*
X650438Y505688D01*
X651270Y505049D01*
X651395Y503605D01*
X650290Y501951D01*
X649902Y500000D01*
X650290Y498049D01*
X651395Y496395D01*
X653049Y495290D01*
X655000Y494902D01*
X656951Y495290D01*
X658605Y496395D01*
X659710Y498049D01*
X659871Y498859D01*
X660522Y499834D01*
X660854Y501500D01*
Y504377D01*
X662562Y505688D01*
X663925Y507463D01*
X664354Y508499D01*
X665729D01*
X665949Y507968D01*
X667151Y506401D01*
X668718Y505199D01*
X670542Y504443D01*
X672500Y504185D01*
X674458Y504443D01*
X676282Y505199D01*
X677849Y506401D01*
X679051Y507968D01*
X679271Y508499D01*
X680646D01*
X681075Y507463D01*
X682438Y505688D01*
X684213Y504325D01*
X686000Y503585D01*
Y519000D01*
Y534415D01*
X684213Y533675D01*
X682438Y532312D01*
X681075Y530537D01*
X680830Y529945D01*
X679560Y530198D01*
Y558000D01*
X679320Y559827D01*
X678750Y561203D01*
Y564250D01*
X677074D01*
X676559Y565520D01*
X676796Y565750D01*
X678750D01*
Y568797D01*
X679320Y570173D01*
X679560Y572000D01*
Y583702D01*
X680500Y584500D01*
X680830Y584500D01*
X685250D01*
Y591750D01*
Y599000D01*
X680830D01*
X680500Y599000D01*
X679560Y599798D01*
Y618500D01*
X680850D01*
Y655500D01*
X679560D01*
Y725000D01*
X679500Y725459D01*
Y730000D01*
X684750D01*
Y741500D01*
D02*
G37*
G36*
X432500Y810587D02*
X428971Y810239D01*
X425578Y809210D01*
X422451Y807539D01*
X419711Y805290D01*
X417461Y802549D01*
X415790Y799422D01*
X414761Y796029D01*
X414413Y792500D01*
X414761Y788971D01*
X415790Y785578D01*
X417461Y782451D01*
X419711Y779710D01*
X422451Y777461D01*
X425578Y775790D01*
X428971Y774761D01*
X432500Y774413D01*
X436029Y774761D01*
X439422Y775790D01*
X442549Y777461D01*
X445289Y779710D01*
X447539Y782451D01*
X449210Y785578D01*
X450239Y788971D01*
X450587Y792500D01*
X450239Y796029D01*
X449210Y799422D01*
X447539Y802549D01*
X445289Y805290D01*
X442549Y807539D01*
X439422Y809210D01*
X436029Y810239D01*
X432500Y810587D01*
D02*
G37*
G36*
X832500D02*
X828971Y810239D01*
X825578Y809210D01*
X822451Y807539D01*
X819710Y805290D01*
X817461Y802549D01*
X815790Y799422D01*
X814760Y796029D01*
X814413Y792500D01*
X814760Y788971D01*
X815790Y785578D01*
X817461Y782451D01*
X819710Y779710D01*
X822451Y777461D01*
X825578Y775790D01*
X828971Y774761D01*
X832500Y774413D01*
X836029Y774761D01*
X839422Y775790D01*
X842549Y777461D01*
X845290Y779710D01*
X847539Y782451D01*
X849210Y785578D01*
X850239Y788971D01*
X850587Y792500D01*
X850239Y796029D01*
X849210Y799422D01*
X847539Y802549D01*
X845290Y805290D01*
X842549Y807539D01*
X839422Y809210D01*
X836029Y810239D01*
X832500Y810587D01*
D02*
G37*
G36*
X695000Y589250D02*
X690250D01*
Y584500D01*
X695000D01*
Y589250D01*
D02*
G37*
G36*
X617500Y611095D02*
X614628Y610717D01*
X611953Y609608D01*
X609655Y607845D01*
X607892Y605547D01*
X606783Y602872D01*
X606405Y600000D01*
X606783Y597128D01*
X607892Y594453D01*
X609655Y592155D01*
X611953Y590392D01*
X614628Y589283D01*
X617500Y588905D01*
X620372Y589283D01*
X623047Y590392D01*
X625345Y592155D01*
X627108Y594453D01*
X628217Y597128D01*
X628595Y600000D01*
X628217Y602872D01*
X627108Y605547D01*
X625345Y607845D01*
X623047Y609608D01*
X620372Y610717D01*
X617500Y611095D01*
D02*
G37*
G36*
X690250Y599000D02*
Y594250D01*
X695000D01*
Y599000D01*
X690250D01*
D02*
G37*
G36*
X691000Y534415D02*
Y521500D01*
X697073D01*
Y526250D01*
X696781Y528469D01*
X695925Y530537D01*
X694562Y532312D01*
X692787Y533675D01*
X691000Y534415D01*
D02*
G37*
G36*
X706500Y507073D02*
X701750D01*
X699531Y506781D01*
X697463Y505925D01*
X695688Y504562D01*
X694325Y502787D01*
X693585Y501000D01*
X706500D01*
Y507073D01*
D02*
G37*
G36*
X716250D02*
X711500D01*
Y501000D01*
X724415D01*
X723675Y502787D01*
X722312Y504562D01*
X720537Y505925D01*
X718469Y506781D01*
X716250Y507073D01*
D02*
G37*
G36*
X697073Y516500D02*
X691000D01*
Y503585D01*
X692787Y504325D01*
X694562Y505688D01*
X695925Y507463D01*
X696781Y509531D01*
X697073Y511750D01*
Y516500D01*
D02*
G37*
G36*
X582700Y613112D02*
X579306Y612665D01*
X576144Y611356D01*
X573428Y609272D01*
X571570Y606850D01*
X570300Y607191D01*
Y613000D01*
X544300D01*
Y587000D01*
X570300D01*
Y592809D01*
X571570Y593150D01*
X573428Y590728D01*
X576144Y588644D01*
X579306Y587335D01*
X582700Y586888D01*
X586094Y587335D01*
X589256Y588644D01*
X591972Y590728D01*
X594055Y593444D01*
X595365Y596606D01*
X595812Y600000D01*
X595365Y603394D01*
X594055Y606556D01*
X591972Y609272D01*
X589256Y611356D01*
X586094Y612665D01*
X582700Y613112D01*
D02*
G37*
G36*
X747500Y648000D02*
X742750D01*
Y643250D01*
X747500D01*
Y648000D01*
D02*
G37*
G36*
X757250D02*
X752500D01*
Y643250D01*
X757250D01*
Y648000D01*
D02*
G37*
G36*
X741450Y684400D02*
X722750D01*
Y645400D01*
X741450D01*
Y660146D01*
X742750D01*
Y657250D01*
Y653000D01*
X750000D01*
X757250D01*
Y657250D01*
Y671750D01*
X755319D01*
X754690Y673020D01*
X754710Y673049D01*
X755098Y675000D01*
X754710Y676951D01*
X753605Y678605D01*
X751951Y679710D01*
X750000Y680098D01*
X748049Y679710D01*
X746395Y678605D01*
X745290Y676951D01*
X744902Y675000D01*
X745290Y673049D01*
X745310Y673020D01*
X744681Y671750D01*
X742750D01*
Y668854D01*
X741450D01*
Y684400D01*
D02*
G37*
%LPD*%
D10*
X750000Y664500D02*
D03*
Y650500D02*
D03*
X5000Y134500D02*
D03*
Y120500D02*
D03*
X452500Y464500D02*
D03*
Y450500D02*
D03*
X472500Y464500D02*
D03*
Y450500D02*
D03*
X672500Y558000D02*
D03*
Y572000D02*
D03*
D11*
X556000Y498500D02*
D03*
Y482500D02*
D03*
Y466500D02*
D03*
Y450500D02*
D03*
Y434500D02*
D03*
Y418500D02*
D03*
Y402500D02*
D03*
Y386500D02*
D03*
X709000D02*
D03*
Y402500D02*
D03*
Y418500D02*
D03*
Y434500D02*
D03*
Y450500D02*
D03*
Y466500D02*
D03*
Y482500D02*
D03*
Y498500D02*
D03*
X48500Y181000D02*
D03*
Y165000D02*
D03*
Y149000D02*
D03*
Y133000D02*
D03*
Y117000D02*
D03*
Y101000D02*
D03*
Y85000D02*
D03*
Y69000D02*
D03*
X201500D02*
D03*
Y85000D02*
D03*
Y101000D02*
D03*
Y117000D02*
D03*
Y133000D02*
D03*
Y149000D02*
D03*
Y165000D02*
D03*
Y181000D02*
D03*
X31000Y778500D02*
D03*
Y762500D02*
D03*
Y746500D02*
D03*
Y730500D02*
D03*
Y714500D02*
D03*
Y698500D02*
D03*
Y682500D02*
D03*
Y666500D02*
D03*
X184000D02*
D03*
Y682500D02*
D03*
Y698500D02*
D03*
Y714500D02*
D03*
Y730500D02*
D03*
Y746500D02*
D03*
Y762500D02*
D03*
Y778500D02*
D03*
D12*
X576500Y366000D02*
D03*
X592500D02*
D03*
X608500D02*
D03*
X624500D02*
D03*
X640500D02*
D03*
X656500D02*
D03*
X672500D02*
D03*
X688500D02*
D03*
Y519000D02*
D03*
X672500D02*
D03*
X656500D02*
D03*
X640500D02*
D03*
X624500D02*
D03*
X608500D02*
D03*
X592500D02*
D03*
X576500D02*
D03*
X69000Y48500D02*
D03*
X85000D02*
D03*
X101000D02*
D03*
X117000D02*
D03*
X133000D02*
D03*
X149000D02*
D03*
X165000D02*
D03*
X181000D02*
D03*
Y201500D02*
D03*
X165000D02*
D03*
X149000D02*
D03*
X133000D02*
D03*
X117000D02*
D03*
X101000D02*
D03*
X85000D02*
D03*
X69000D02*
D03*
X51500Y646000D02*
D03*
X67500D02*
D03*
X83500D02*
D03*
X99500D02*
D03*
X115500D02*
D03*
X131500D02*
D03*
X147500D02*
D03*
X163500D02*
D03*
Y799000D02*
D03*
X147500D02*
D03*
X131500D02*
D03*
X115500D02*
D03*
X99500D02*
D03*
X83500D02*
D03*
X67500D02*
D03*
X51500D02*
D03*
D13*
X687250Y744000D02*
D03*
X657750D02*
D03*
D14*
X672500Y728750D02*
D03*
D15*
X673750Y591750D02*
D03*
X687750D02*
D03*
D16*
X672500Y637000D02*
D03*
X732100Y664900D02*
D03*
D17*
X655000Y500000D02*
X656500Y501500D01*
Y519000D01*
X750000Y664500D02*
Y675000D01*
X732100Y664900D02*
X732500Y664500D01*
X750000D01*
X579000Y466500D02*
X580000Y465500D01*
X556000Y466500D02*
X579000D01*
X580000Y457500D02*
Y465500D01*
X131500Y778500D02*
X132500Y777500D01*
X162500Y712500D02*
X164500Y714500D01*
X37500Y797500D02*
X39000Y799000D01*
X163500Y646000D02*
Y666500D01*
X182000Y712500D02*
X184000Y714500D01*
X164500D02*
X184000D01*
X31000Y778500D02*
X51500D01*
X39000Y799000D02*
X51500D01*
X131500Y778500D02*
Y799000D01*
X31000Y714500D02*
X55500D01*
X147500Y777500D02*
Y799000D01*
X67500Y777500D02*
Y799000D01*
Y646000D02*
Y662500D01*
X685000Y385000D02*
X688500Y381500D01*
Y366000D02*
Y381500D01*
X592500Y500000D02*
X593000Y499500D01*
X592500Y500000D02*
Y519000D01*
Y366000D02*
Y385000D01*
X556000Y434500D02*
X577000D01*
X577500Y435000D01*
X475500Y447500D02*
X485000D01*
X472500Y450500D02*
X475500Y447500D01*
X452500Y464500D02*
X472500D01*
X709500Y435000D02*
X727500D01*
X709000Y434500D02*
X709500Y435000D01*
X556000Y498500D02*
Y511500D01*
X555000Y512500D02*
X556000Y511500D01*
X576500Y519000D02*
Y538500D01*
X656500Y519000D02*
X657500Y520000D01*
X177500Y70000D02*
X181000Y66500D01*
Y48500D02*
Y66500D01*
X165000Y182500D02*
Y201500D01*
X50500Y115000D02*
X65000D01*
X48500Y117000D02*
X50500Y115000D01*
X5500Y135000D02*
X20000D01*
X5000Y134500D02*
X5500Y135000D01*
X85000Y180000D02*
Y201500D01*
Y48500D02*
Y67500D01*
X183000Y117000D02*
X201500D01*
X182500Y117500D02*
X183000Y117000D01*
X149000Y185677D02*
Y201500D01*
X48500Y181000D02*
Y196500D01*
X47500Y197500D02*
X48500Y196500D01*
X67500Y203000D02*
Y225000D01*
Y203000D02*
X69000Y201500D01*
D18*
X672500Y572000D02*
Y637000D01*
X672500Y637000D02*
X672500Y637000D01*
X672500Y637000D02*
Y725000D01*
X672500Y519000D02*
Y558000D01*
D19*
X176000Y282500D02*
D03*
X99800D02*
D03*
X74400D02*
D03*
X125200D02*
D03*
X150600D02*
D03*
X790000Y497700D02*
D03*
X582700Y600000D02*
D03*
X99800Y867500D02*
D03*
X39800D02*
D03*
D20*
X49000Y282500D02*
D03*
X557300Y600000D02*
D03*
X125200Y867500D02*
D03*
X65200D02*
D03*
D21*
X790000Y472300D02*
D03*
D22*
X82500Y577500D02*
D03*
X617500Y600000D02*
D03*
X162500Y867500D02*
D03*
X790000Y435000D02*
D03*
X132500Y577500D02*
D03*
D23*
X857500Y742500D02*
D03*
X832500Y692500D02*
D03*
X857500Y642500D02*
D03*
X832500Y592500D02*
D03*
X857500Y542500D02*
D03*
X832500Y492500D02*
D03*
X857500Y442500D02*
D03*
X832500Y392500D02*
D03*
X857500Y342500D02*
D03*
X832500Y292500D02*
D03*
X857500Y242500D02*
D03*
X832500Y192500D02*
D03*
X857500Y142500D02*
D03*
X782500Y792500D02*
D03*
X807500Y742500D02*
D03*
X782500Y692500D02*
D03*
X807500Y642500D02*
D03*
X782500Y592500D02*
D03*
X807500Y542500D02*
D03*
Y442500D02*
D03*
X782500Y392500D02*
D03*
X807500Y342500D02*
D03*
X782500Y292500D02*
D03*
X807500Y242500D02*
D03*
X782500Y192500D02*
D03*
X807500Y142500D02*
D03*
X782500Y92500D02*
D03*
X732500Y792500D02*
D03*
X757500Y742500D02*
D03*
X732500Y692500D02*
D03*
Y592500D02*
D03*
X757500Y542500D02*
D03*
X732500Y492500D02*
D03*
Y392500D02*
D03*
X757500Y342500D02*
D03*
X732500Y292500D02*
D03*
X757500Y242500D02*
D03*
X732500Y192500D02*
D03*
X757500Y142500D02*
D03*
X732500Y92500D02*
D03*
X682500Y792500D02*
D03*
X707500Y742500D02*
D03*
Y642500D02*
D03*
Y542500D02*
D03*
Y342500D02*
D03*
X682500Y292500D02*
D03*
X707500Y242500D02*
D03*
X682500Y192500D02*
D03*
X707500Y142500D02*
D03*
X682500Y92500D02*
D03*
X632500Y792500D02*
D03*
Y692500D02*
D03*
Y592500D02*
D03*
Y492500D02*
D03*
X657500Y342500D02*
D03*
X632500Y292500D02*
D03*
X657500Y242500D02*
D03*
X632500Y192500D02*
D03*
X657500Y142500D02*
D03*
X632500Y92500D02*
D03*
X582500Y792500D02*
D03*
X607500Y742500D02*
D03*
X582500Y692500D02*
D03*
X607500Y642500D02*
D03*
Y542500D02*
D03*
X582500Y392500D02*
D03*
X607500Y342500D02*
D03*
X582500Y292500D02*
D03*
X607500Y242500D02*
D03*
X582500Y192500D02*
D03*
X607500Y142500D02*
D03*
X582500Y92500D02*
D03*
X532500Y792500D02*
D03*
X557500Y742500D02*
D03*
X532500Y692500D02*
D03*
X557500Y642500D02*
D03*
X532500Y592500D02*
D03*
Y492500D02*
D03*
Y392500D02*
D03*
X557500Y342500D02*
D03*
X532500Y292500D02*
D03*
X557500Y242500D02*
D03*
X532500Y192500D02*
D03*
X557500Y142500D02*
D03*
X532500Y92500D02*
D03*
X482500Y792500D02*
D03*
X507500Y742500D02*
D03*
X482500Y692500D02*
D03*
X507500Y642500D02*
D03*
X482500Y592500D02*
D03*
X507500Y542500D02*
D03*
X482500Y492500D02*
D03*
Y392500D02*
D03*
X507500Y342500D02*
D03*
X482500Y292500D02*
D03*
X507500Y242500D02*
D03*
X482500Y192500D02*
D03*
X507500Y142500D02*
D03*
X482500Y92500D02*
D03*
X457500Y742500D02*
D03*
X432500Y692500D02*
D03*
X457500Y642500D02*
D03*
X432500Y592500D02*
D03*
X457500Y542500D02*
D03*
X432500Y492500D02*
D03*
Y392500D02*
D03*
X457500Y342500D02*
D03*
X432500Y292500D02*
D03*
X457500Y242500D02*
D03*
X432500Y192500D02*
D03*
X457500Y142500D02*
D03*
X12500Y22500D02*
D03*
X22500Y42500D02*
D03*
X12500Y62500D02*
D03*
X22500Y82500D02*
D03*
X12500Y102500D02*
D03*
X22500Y122500D02*
D03*
Y162500D02*
D03*
X12500Y182500D02*
D03*
X22500Y202500D02*
D03*
X12500Y222500D02*
D03*
X32500Y22500D02*
D03*
X42500Y42500D02*
D03*
X32500Y222500D02*
D03*
X52500Y22500D02*
D03*
X72500D02*
D03*
Y102500D02*
D03*
X92500Y22500D02*
D03*
X102500Y122500D02*
D03*
X92500Y222500D02*
D03*
X112500Y22500D02*
D03*
X122500Y82500D02*
D03*
X112500Y222500D02*
D03*
X132500Y22500D02*
D03*
X142500Y122500D02*
D03*
X132500Y222500D02*
D03*
X152500Y22500D02*
D03*
X162500Y122500D02*
D03*
X152500Y142500D02*
D03*
X172500Y22500D02*
D03*
Y102500D02*
D03*
Y222500D02*
D03*
X192500Y22500D02*
D03*
X202500Y42500D02*
D03*
Y202500D02*
D03*
X192500Y222500D02*
D03*
X212500Y22500D02*
D03*
X222500Y42500D02*
D03*
Y82500D02*
D03*
Y122500D02*
D03*
Y162500D02*
D03*
Y202500D02*
D03*
X212500Y222500D02*
D03*
X232500Y22500D02*
D03*
X242500Y42500D02*
D03*
X232500Y62500D02*
D03*
X242500Y82500D02*
D03*
X232500Y102500D02*
D03*
X242500Y122500D02*
D03*
X232500Y142500D02*
D03*
X242500Y162500D02*
D03*
X232500Y182500D02*
D03*
X242500Y202500D02*
D03*
X232500Y222500D02*
D03*
D24*
X671364Y738894D02*
D03*
X662508Y722218D02*
D03*
Y714618D02*
D03*
Y707018D02*
D03*
Y699418D02*
D03*
Y691818D02*
D03*
Y684218D02*
D03*
Y676618D02*
D03*
Y669018D02*
D03*
Y661419D02*
D03*
X661337Y653909D02*
D03*
X661256Y646310D02*
D03*
Y638710D02*
D03*
Y631110D02*
D03*
Y623510D02*
D03*
X662508Y616013D02*
D03*
Y608414D02*
D03*
Y600814D02*
D03*
Y593214D02*
D03*
Y585614D02*
D03*
Y578014D02*
D03*
X682492Y572093D02*
D03*
Y579693D02*
D03*
Y602473D02*
D03*
Y610074D02*
D03*
X682732Y617670D02*
D03*
X683744Y625202D02*
D03*
Y632802D02*
D03*
Y640402D02*
D03*
Y648002D02*
D03*
X683230Y655584D02*
D03*
X682492Y663148D02*
D03*
Y670749D02*
D03*
Y678348D02*
D03*
Y685948D02*
D03*
Y693548D02*
D03*
Y701148D02*
D03*
Y708748D02*
D03*
Y716348D02*
D03*
Y723948D02*
D03*
X664302Y564981D02*
D03*
X662508Y557595D02*
D03*
Y549995D02*
D03*
Y542395D02*
D03*
Y534795D02*
D03*
X664647Y504884D02*
D03*
X671388Y501373D02*
D03*
X678713Y503400D02*
D03*
X682492Y540235D02*
D03*
Y547835D02*
D03*
Y555435D02*
D03*
X681501Y562970D02*
D03*
D25*
X655000Y500000D02*
D03*
X750000Y675000D02*
D03*
X580000Y490000D02*
D03*
Y457500D02*
D03*
X110000Y170000D02*
D03*
X117500D02*
D03*
X85000Y180000D02*
D03*
X65000Y115000D02*
D03*
X165000Y182500D02*
D03*
X95000Y152500D02*
D03*
Y145000D02*
D03*
X140000Y75000D02*
D03*
X110000Y77500D02*
D03*
X165000Y145000D02*
D03*
X182500Y117500D02*
D03*
X149000Y185677D02*
D03*
X47500Y197500D02*
D03*
X67500Y225000D02*
D03*
X275000Y190000D02*
D03*
Y180000D02*
D03*
Y170000D02*
D03*
Y160000D02*
D03*
Y150000D02*
D03*
X360000D02*
D03*
Y160000D02*
D03*
Y170000D02*
D03*
Y180000D02*
D03*
Y190000D02*
D03*
Y795000D02*
D03*
Y805000D02*
D03*
Y815000D02*
D03*
Y825000D02*
D03*
Y835000D02*
D03*
Y845000D02*
D03*
Y855000D02*
D03*
X255000Y795000D02*
D03*
Y805000D02*
D03*
Y815000D02*
D03*
Y825000D02*
D03*
Y835000D02*
D03*
Y845000D02*
D03*
Y855000D02*
D03*
D26*
X652500Y480000D02*
D03*
X132500Y777500D02*
D03*
X162500Y712500D02*
D03*
X37500Y797500D02*
D03*
X51500Y778500D02*
D03*
X55500Y714500D02*
D03*
X163500Y666500D02*
D03*
X127500Y677500D02*
D03*
X92500Y672500D02*
D03*
X147500Y777500D02*
D03*
X92500Y767500D02*
D03*
X67500Y777500D02*
D03*
Y662500D02*
D03*
X147500Y737500D02*
D03*
X685000Y385000D02*
D03*
X593000Y499500D02*
D03*
X592500Y385000D02*
D03*
X577500Y435000D02*
D03*
X485000Y447500D02*
D03*
X555000Y512500D02*
D03*
X576500Y538500D02*
D03*
X630000Y397500D02*
D03*
X617500Y487500D02*
D03*
X672500Y460000D02*
D03*
X727500Y435000D02*
D03*
X177500Y70000D02*
D03*
X20000Y135000D02*
D03*
X85000Y67500D02*
D03*
D27*
X50000Y-50000D02*
D03*
X200000D02*
D03*
X50000Y350000D02*
D03*
X200000D02*
D03*
X32500Y547500D02*
D03*
X182500D02*
D03*
X2500Y867500D02*
D03*
X212500D02*
D03*
X432500Y92500D02*
D03*
X832500D02*
D03*
X432500Y792500D02*
D03*
X832500D02*
D03*
M02*
