G04 Layer_Color=32896*
%FSLAX44Y44*%
%MOMM*%
G71*
G01*
G75*
%ADD17C,0.2540*%
%ADD30C,0.2500*%
%ADD31C,0.2000*%
G36*
X106450Y140950D02*
X99250Y133750D01*
X99250Y140950D01*
X106450Y140950D01*
D02*
G37*
G36*
X640950Y475750D02*
X640950Y468550D01*
X633750Y475750D01*
X640950Y475750D01*
D02*
G37*
G36*
X81450Y738450D02*
X74250Y731250D01*
X74250Y738450D01*
X81450Y738450D01*
D02*
G37*
D17*
X114164Y784169D02*
X112498Y782503D01*
X109166D01*
X107500Y784169D01*
Y790834D01*
X109166Y792500D01*
X112498D01*
X114164Y790834D01*
X117497Y792500D02*
X120829D01*
X119163D01*
Y782503D01*
X117497Y784169D01*
X74165Y834169D02*
X72498Y832503D01*
X69166D01*
X67500Y834169D01*
Y840834D01*
X69166Y842500D01*
X72498D01*
X74165Y840834D01*
X84161Y842500D02*
X77497D01*
X84161Y835835D01*
Y834169D01*
X82495Y832503D01*
X79163D01*
X77497Y834169D01*
X763070Y518241D02*
X764736Y519907D01*
X768068D01*
X769734Y518241D01*
Y511576D01*
X768068Y509910D01*
X764736D01*
X763070Y511576D01*
X759737Y518241D02*
X758071Y519907D01*
X754739D01*
X753073Y518241D01*
Y516575D01*
X754739Y514908D01*
X756405D01*
X754739D01*
X753073Y513242D01*
Y511576D01*
X754739Y509910D01*
X758071D01*
X759737Y511576D01*
X698335Y440831D02*
X700002Y442497D01*
X703334D01*
X705000Y440831D01*
Y434166D01*
X703334Y432500D01*
X700002D01*
X698335Y434166D01*
X690005Y432500D02*
Y442497D01*
X695003Y437498D01*
X688339D01*
X140007Y193121D02*
X141674Y194787D01*
X145006D01*
X146672Y193121D01*
Y186456D01*
X145006Y184790D01*
X141674D01*
X140007Y186456D01*
X130011Y194787D02*
X133343Y193121D01*
X136675Y189788D01*
Y186456D01*
X135009Y184790D01*
X131677D01*
X130011Y186456D01*
Y188122D01*
X131677Y189788D01*
X136675D01*
X77523Y695787D02*
X79190Y697453D01*
X82522D01*
X84188Y695787D01*
Y689122D01*
X82522Y687456D01*
X79190D01*
X77523Y689122D01*
X74191Y697453D02*
X67527D01*
Y695787D01*
X74191Y689122D01*
Y687456D01*
X74165Y784169D02*
X72498Y782503D01*
X69166D01*
X67500Y784169D01*
Y790834D01*
X69166Y792500D01*
X72498D01*
X74165Y790834D01*
X77497Y784169D02*
X79163Y782503D01*
X82495D01*
X84161Y784169D01*
Y785835D01*
X82495Y787502D01*
X84161Y789168D01*
Y790834D01*
X82495Y792500D01*
X79163D01*
X77497Y790834D01*
Y789168D01*
X79163Y787502D01*
X77497Y785835D01*
Y784169D01*
X79163Y787502D02*
X82495D01*
X608335Y418331D02*
X610002Y419997D01*
X613334D01*
X615000Y418331D01*
Y411666D01*
X613334Y410000D01*
X610002D01*
X608335Y411666D01*
X605003D02*
X603337Y410000D01*
X600005D01*
X598339Y411666D01*
Y418331D01*
X600005Y419997D01*
X603337D01*
X605003Y418331D01*
Y416665D01*
X603337Y414998D01*
X598339D01*
X603335Y518331D02*
X605002Y519997D01*
X608334D01*
X610000Y518331D01*
Y511666D01*
X608334Y510000D01*
X605002D01*
X603335Y511666D01*
X600003Y510000D02*
X596671D01*
X598337D01*
Y519997D01*
X600003Y518331D01*
X591673D02*
X590006Y519997D01*
X586674D01*
X585008Y518331D01*
Y511666D01*
X586674Y510000D01*
X590006D01*
X591673Y511666D01*
Y518331D01*
X97590Y193121D02*
X99256Y194787D01*
X102588D01*
X104254Y193121D01*
Y186456D01*
X102588Y184790D01*
X99256D01*
X97590Y186456D01*
X94257Y184790D02*
X90925D01*
X92591D01*
Y194787D01*
X94257Y193121D01*
X85927Y184790D02*
X82594D01*
X84261D01*
Y194787D01*
X85927Y193121D01*
X97590Y100665D02*
X99256Y102331D01*
X102588D01*
X104254Y100665D01*
Y94000D01*
X102588Y92334D01*
X99256D01*
X97590Y94000D01*
X94257Y92334D02*
X90925D01*
X92591D01*
Y102331D01*
X94257Y100665D01*
X79262Y92334D02*
X85927D01*
X79262Y98998D01*
Y100665D01*
X80928Y102331D01*
X84261D01*
X85927Y100665D01*
X144550Y724497D02*
Y714500D01*
X139552D01*
X137886Y716166D01*
Y722831D01*
X139552Y724497D01*
X144550D01*
X134553Y714500D02*
X131221D01*
X132887D01*
Y724497D01*
X134553Y722831D01*
X635000Y492497D02*
Y482500D01*
X630002D01*
X628335Y484166D01*
Y490831D01*
X630002Y492497D01*
X635000D01*
X618339Y482500D02*
X625003D01*
X618339Y489165D01*
Y490831D01*
X620005Y492497D01*
X623337D01*
X625003Y490831D01*
X172500Y752500D02*
Y762497D01*
X167502D01*
X165835Y760831D01*
Y757498D01*
X167502Y755832D01*
X172500D01*
X169168D02*
X165835Y752500D01*
X162503D02*
X159171D01*
X160837D01*
Y762497D01*
X162503Y760831D01*
X617500Y467500D02*
Y477497D01*
X612502D01*
X610835Y475831D01*
Y472498D01*
X612502Y470832D01*
X617500D01*
X614168D02*
X610835Y467500D01*
X600839D02*
X607503D01*
X600839Y474165D01*
Y475831D01*
X602505Y477497D01*
X605837D01*
X607503Y475831D01*
X159118Y692282D02*
Y702279D01*
X154120D01*
X152453Y700613D01*
Y697280D01*
X154120Y695614D01*
X159118D01*
X155786D02*
X152453Y692282D01*
X144123D02*
Y702279D01*
X149121Y697280D01*
X142457D01*
X677500Y410000D02*
Y419997D01*
X672502D01*
X670835Y418331D01*
Y414998D01*
X672502Y413332D01*
X677500D01*
X674168D02*
X670835Y410000D01*
X660839Y419997D02*
X667503D01*
Y414998D01*
X664171Y416665D01*
X662505D01*
X660839Y414998D01*
Y411666D01*
X662505Y410000D01*
X665837D01*
X667503Y411666D01*
D30*
X96750Y151950D02*
G03*
X96750Y151950I-1250J0D01*
G01*
X653200Y479500D02*
G03*
X653200Y479500I-1250J0D01*
G01*
X71750Y749450D02*
G03*
X71750Y749450I-1250J0D01*
G01*
D31*
X68750Y140750D02*
X81250D01*
X68750Y114250D02*
X81250D01*
X68750D02*
Y140750D01*
X81250Y114250D02*
Y140750D01*
X146750Y68750D02*
Y81250D01*
X173250Y68750D02*
Y81250D01*
X146750Y68750D02*
X173250D01*
X146750Y81250D02*
X173250D01*
X656750Y391250D02*
Y403750D01*
X683250Y391250D02*
Y403750D01*
X656750Y391250D02*
X683250D01*
X656750Y403750D02*
X683250D01*
X134250Y671250D02*
Y683750D01*
X160750Y671250D02*
Y683750D01*
X134250Y671250D02*
X160750D01*
X134250Y683750D02*
X160750D01*
X158750Y178250D02*
X171250D01*
X158750Y151750D02*
X171250D01*
X158750D02*
Y178250D01*
X171250Y151750D02*
Y178250D01*
X573750Y485750D02*
X586250D01*
X573750Y459250D02*
X586250D01*
X573750D02*
Y485750D01*
X586250Y459250D02*
Y485750D01*
X141250Y770750D02*
X153750D01*
X141250Y744250D02*
X153750D01*
X141250D02*
Y770750D01*
X153750Y744250D02*
Y770750D01*
X99250Y140950D02*
X145500D01*
X99250Y108950D02*
Y140950D01*
Y108950D02*
X145500D01*
Y140950D01*
X640950Y429500D02*
Y475750D01*
X608950D02*
X640950D01*
X608950Y429500D02*
Y475750D01*
Y429500D02*
X640950D01*
X74250Y738450D02*
X120500D01*
X74250Y706450D02*
Y738450D01*
Y706450D02*
X120500D01*
Y738450D01*
X105750Y71250D02*
Y83750D01*
X79250Y71250D02*
Y83750D01*
X105750D01*
X79250Y71250D02*
X105750D01*
Y163750D02*
Y176250D01*
X79250Y163750D02*
Y176250D01*
X105750D01*
X79250Y163750D02*
X105750D01*
X613250Y481250D02*
Y493750D01*
X586750Y481250D02*
Y493750D01*
X613250D01*
X586750Y481250D02*
X613250D01*
X623250Y391250D02*
Y403750D01*
X596750Y391250D02*
Y403750D01*
X623250D01*
X596750Y391250D02*
X623250D01*
X90750Y761250D02*
Y773750D01*
X64250Y761250D02*
Y773750D01*
X90750D01*
X64250Y761250D02*
X90750D01*
X85750Y666250D02*
Y678750D01*
X59250Y666250D02*
Y678750D01*
X85750D01*
X59250Y666250D02*
X85750D01*
X121750Y163750D02*
Y176250D01*
X148250Y163750D02*
Y176250D01*
X121750Y163750D02*
X148250D01*
X121750Y176250D02*
X148250D01*
X104250Y246250D02*
Y258750D01*
X130750Y246250D02*
Y258750D01*
X104250Y246250D02*
X130750D01*
X104250Y258750D02*
X130750D01*
X666250Y455750D02*
X678750D01*
X666250Y429250D02*
X678750D01*
X666250D02*
Y455750D01*
X678750Y429250D02*
Y455750D01*
X758750Y501250D02*
X771250D01*
X758750Y474750D02*
X771250D01*
X758750D02*
Y501250D01*
X771250Y474750D02*
Y501250D01*
X94250Y831250D02*
Y843750D01*
X120750Y831250D02*
Y843750D01*
X94250Y831250D02*
X120750D01*
X94250Y843750D02*
X120750D01*
X94250Y761250D02*
Y773750D01*
X120750Y761250D02*
Y773750D01*
X94250Y761250D02*
X120750D01*
X94250Y773750D02*
X120750D01*
M02*
