G04 Layer_Color=16711935*
%FSLAX44Y44*%
%MOMM*%
G71*
G01*
G75*
%ADD50C,0.1000*%
D50*
X272500Y382500D02*
G03*
X262500Y392500I-10000J0D01*
G01*
X-17500Y-77500D02*
G03*
X-7500Y-87500I10000J-0D01*
G01*
X262500Y-87500D02*
G03*
X272500Y-77500I-0J10000D01*
G01*
X282500Y142500D02*
G03*
X272500Y132500I0J-10000D01*
G01*
X362500Y132500D02*
G03*
X352500Y142500I-10000J0D01*
G01*
X362500Y32500D02*
G03*
X372500Y22500I10000J0D01*
G01*
X892500D02*
G03*
X902500Y32500I0J10000D01*
G01*
Y852500D02*
G03*
X892500Y862500I-10000J0D01*
G01*
X252500Y872500D02*
G03*
X262500Y862500I10000J0D01*
G01*
X252500Y882500D02*
G03*
X242500Y892500I-10000J0D01*
G01*
X-27500D02*
G03*
X-37500Y882500I0J-10000D01*
G01*
Y532500D02*
G03*
X-27500Y522500I10000J0D01*
G01*
X242500D02*
G03*
X252500Y532500I0J10000D01*
G01*
X262500Y792500D02*
G03*
X252500Y782500I0J-10000D01*
G01*
X362500Y782500D02*
G03*
X352500Y792500I-10000J0D01*
G01*
Y192500D02*
G03*
X362500Y202500I-0J10000D01*
G01*
X272500D02*
G03*
X282500Y192500I10000J0D01*
G01*
X-7500Y392500D02*
G03*
X-17500Y382500I0J-10000D01*
G01*
X-7500Y-87500D02*
X262500Y-87500D01*
X272500Y-77500D02*
Y132500D01*
X282500Y142500D02*
X352500D01*
X362500Y32500D02*
Y132500D01*
X372500Y22500D02*
X892500D01*
X902500Y32500D02*
Y852500D01*
X262500Y862500D02*
X892500D01*
X252500Y872500D02*
Y882500D01*
X-27500Y892500D02*
X242500D01*
X-37500Y532500D02*
Y882500D01*
X-27500Y522500D02*
X242500D01*
X252500Y532500D02*
Y782500D01*
X262500Y792500D02*
X352500D01*
X362500Y202500D02*
Y782500D01*
X282500Y192500D02*
X352500D01*
X272500Y202500D02*
Y382500D01*
X-7500Y392500D02*
X262500Y392500D01*
X-17500Y-77500D02*
Y382500D01*
M02*
