G04 Layer_Color=8388736*
%FSLAX44Y44*%
%MOMM*%
G71*
G01*
G75*
%ADD32R,1.0000X1.0000*%
%ADD33O,2.7000X1.2500*%
%ADD34O,1.2500X2.7000*%
%ADD35R,1.2000X2.3500*%
%ADD36R,1.1500X1.2000*%
%ADD37R,1.0000X1.0000*%
%ADD38R,1.4200X3.4500*%
%ADD39C,2.1500*%
%ADD40R,2.1500X2.1500*%
%ADD41R,2.1500X2.1500*%
%ADD42C,1.7500*%
%ADD43C,1.1500*%
%ADD44C,0.6100*%
%ADD45C,0.5500*%
%ADD46C,0.9500*%
%ADD47C,3.1500*%
D32*
X750000Y664500D02*
D03*
Y650500D02*
D03*
X5000Y134500D02*
D03*
Y120500D02*
D03*
X452500Y464500D02*
D03*
Y450500D02*
D03*
X472500Y464500D02*
D03*
Y450500D02*
D03*
X672500Y558000D02*
D03*
Y572000D02*
D03*
D33*
X556000Y498500D02*
D03*
Y482500D02*
D03*
Y466500D02*
D03*
Y450500D02*
D03*
Y434500D02*
D03*
Y418500D02*
D03*
Y402500D02*
D03*
Y386500D02*
D03*
X709000D02*
D03*
Y402500D02*
D03*
Y418500D02*
D03*
Y434500D02*
D03*
Y450500D02*
D03*
Y466500D02*
D03*
Y482500D02*
D03*
Y498500D02*
D03*
X48500Y181000D02*
D03*
Y165000D02*
D03*
Y149000D02*
D03*
Y133000D02*
D03*
Y117000D02*
D03*
Y101000D02*
D03*
Y85000D02*
D03*
Y69000D02*
D03*
X201500D02*
D03*
Y85000D02*
D03*
Y101000D02*
D03*
Y117000D02*
D03*
Y133000D02*
D03*
Y149000D02*
D03*
Y165000D02*
D03*
Y181000D02*
D03*
X31000Y778500D02*
D03*
Y762500D02*
D03*
Y746500D02*
D03*
Y730500D02*
D03*
Y714500D02*
D03*
Y698500D02*
D03*
Y682500D02*
D03*
Y666500D02*
D03*
X184000D02*
D03*
Y682500D02*
D03*
Y698500D02*
D03*
Y714500D02*
D03*
Y730500D02*
D03*
Y746500D02*
D03*
Y762500D02*
D03*
Y778500D02*
D03*
D34*
X576500Y366000D02*
D03*
X592500D02*
D03*
X608500D02*
D03*
X624500D02*
D03*
X640500D02*
D03*
X656500D02*
D03*
X672500D02*
D03*
X688500D02*
D03*
Y519000D02*
D03*
X672500D02*
D03*
X656500D02*
D03*
X640500D02*
D03*
X624500D02*
D03*
X608500D02*
D03*
X592500D02*
D03*
X576500D02*
D03*
X69000Y48500D02*
D03*
X85000D02*
D03*
X101000D02*
D03*
X117000D02*
D03*
X133000D02*
D03*
X149000D02*
D03*
X165000D02*
D03*
X181000D02*
D03*
Y201500D02*
D03*
X165000D02*
D03*
X149000D02*
D03*
X133000D02*
D03*
X117000D02*
D03*
X101000D02*
D03*
X85000D02*
D03*
X69000D02*
D03*
X51500Y646000D02*
D03*
X67500D02*
D03*
X83500D02*
D03*
X99500D02*
D03*
X115500D02*
D03*
X131500D02*
D03*
X147500D02*
D03*
X163500D02*
D03*
Y799000D02*
D03*
X147500D02*
D03*
X131500D02*
D03*
X115500D02*
D03*
X99500D02*
D03*
X83500D02*
D03*
X67500D02*
D03*
X51500D02*
D03*
D35*
X687250Y744000D02*
D03*
X657750D02*
D03*
D36*
X672500Y728750D02*
D03*
D37*
X673750Y591750D02*
D03*
X687750D02*
D03*
D38*
X672500Y637000D02*
D03*
X732100Y664900D02*
D03*
D39*
X176000Y282500D02*
D03*
X99800D02*
D03*
X74400D02*
D03*
X125200D02*
D03*
X150600D02*
D03*
X790000Y497700D02*
D03*
X582700Y600000D02*
D03*
X99800Y867500D02*
D03*
X39800D02*
D03*
D40*
X49000Y282500D02*
D03*
X557300Y600000D02*
D03*
X125200Y867500D02*
D03*
X65200D02*
D03*
D41*
X790000Y472300D02*
D03*
D42*
X82500Y577500D02*
D03*
X617500Y600000D02*
D03*
X162500Y867500D02*
D03*
X790000Y435000D02*
D03*
X132500Y577500D02*
D03*
D43*
X857500Y742500D02*
D03*
X832500Y692500D02*
D03*
X857500Y642500D02*
D03*
X832500Y592500D02*
D03*
X857500Y542500D02*
D03*
X832500Y492500D02*
D03*
X857500Y442500D02*
D03*
X832500Y392500D02*
D03*
X857500Y342500D02*
D03*
X832500Y292500D02*
D03*
X857500Y242500D02*
D03*
X832500Y192500D02*
D03*
X857500Y142500D02*
D03*
X782500Y792500D02*
D03*
X807500Y742500D02*
D03*
X782500Y692500D02*
D03*
X807500Y642500D02*
D03*
X782500Y592500D02*
D03*
X807500Y542500D02*
D03*
Y442500D02*
D03*
X782500Y392500D02*
D03*
X807500Y342500D02*
D03*
X782500Y292500D02*
D03*
X807500Y242500D02*
D03*
X782500Y192500D02*
D03*
X807500Y142500D02*
D03*
X782500Y92500D02*
D03*
X732500Y792500D02*
D03*
X757500Y742500D02*
D03*
X732500Y692500D02*
D03*
Y592500D02*
D03*
X757500Y542500D02*
D03*
X732500Y492500D02*
D03*
Y392500D02*
D03*
X757500Y342500D02*
D03*
X732500Y292500D02*
D03*
X757500Y242500D02*
D03*
X732500Y192500D02*
D03*
X757500Y142500D02*
D03*
X732500Y92500D02*
D03*
X682500Y792500D02*
D03*
X707500Y742500D02*
D03*
Y642500D02*
D03*
Y542500D02*
D03*
Y342500D02*
D03*
X682500Y292500D02*
D03*
X707500Y242500D02*
D03*
X682500Y192500D02*
D03*
X707500Y142500D02*
D03*
X682500Y92500D02*
D03*
X632500Y792500D02*
D03*
Y692500D02*
D03*
Y592500D02*
D03*
Y492500D02*
D03*
X657500Y342500D02*
D03*
X632500Y292500D02*
D03*
X657500Y242500D02*
D03*
X632500Y192500D02*
D03*
X657500Y142500D02*
D03*
X632500Y92500D02*
D03*
X582500Y792500D02*
D03*
X607500Y742500D02*
D03*
X582500Y692500D02*
D03*
X607500Y642500D02*
D03*
Y542500D02*
D03*
X582500Y392500D02*
D03*
X607500Y342500D02*
D03*
X582500Y292500D02*
D03*
X607500Y242500D02*
D03*
X582500Y192500D02*
D03*
X607500Y142500D02*
D03*
X582500Y92500D02*
D03*
X532500Y792500D02*
D03*
X557500Y742500D02*
D03*
X532500Y692500D02*
D03*
X557500Y642500D02*
D03*
X532500Y592500D02*
D03*
Y492500D02*
D03*
Y392500D02*
D03*
X557500Y342500D02*
D03*
X532500Y292500D02*
D03*
X557500Y242500D02*
D03*
X532500Y192500D02*
D03*
X557500Y142500D02*
D03*
X532500Y92500D02*
D03*
X482500Y792500D02*
D03*
X507500Y742500D02*
D03*
X482500Y692500D02*
D03*
X507500Y642500D02*
D03*
X482500Y592500D02*
D03*
X507500Y542500D02*
D03*
X482500Y492500D02*
D03*
Y392500D02*
D03*
X507500Y342500D02*
D03*
X482500Y292500D02*
D03*
X507500Y242500D02*
D03*
X482500Y192500D02*
D03*
X507500Y142500D02*
D03*
X482500Y92500D02*
D03*
X457500Y742500D02*
D03*
X432500Y692500D02*
D03*
X457500Y642500D02*
D03*
X432500Y592500D02*
D03*
X457500Y542500D02*
D03*
X432500Y492500D02*
D03*
Y392500D02*
D03*
X457500Y342500D02*
D03*
X432500Y292500D02*
D03*
X457500Y242500D02*
D03*
X432500Y192500D02*
D03*
X457500Y142500D02*
D03*
X12500Y22500D02*
D03*
X22500Y42500D02*
D03*
X12500Y62500D02*
D03*
X22500Y82500D02*
D03*
X12500Y102500D02*
D03*
X22500Y122500D02*
D03*
Y162500D02*
D03*
X12500Y182500D02*
D03*
X22500Y202500D02*
D03*
X12500Y222500D02*
D03*
X32500Y22500D02*
D03*
X42500Y42500D02*
D03*
X32500Y222500D02*
D03*
X52500Y22500D02*
D03*
X72500D02*
D03*
Y102500D02*
D03*
X92500Y22500D02*
D03*
X102500Y122500D02*
D03*
X92500Y222500D02*
D03*
X112500Y22500D02*
D03*
X122500Y82500D02*
D03*
X112500Y222500D02*
D03*
X132500Y22500D02*
D03*
X142500Y122500D02*
D03*
X132500Y222500D02*
D03*
X152500Y22500D02*
D03*
X162500Y122500D02*
D03*
X152500Y142500D02*
D03*
X172500Y22500D02*
D03*
Y102500D02*
D03*
Y222500D02*
D03*
X192500Y22500D02*
D03*
X202500Y42500D02*
D03*
Y202500D02*
D03*
X192500Y222500D02*
D03*
X212500Y22500D02*
D03*
X222500Y42500D02*
D03*
Y82500D02*
D03*
Y122500D02*
D03*
Y162500D02*
D03*
Y202500D02*
D03*
X212500Y222500D02*
D03*
X232500Y22500D02*
D03*
X242500Y42500D02*
D03*
X232500Y62500D02*
D03*
X242500Y82500D02*
D03*
X232500Y102500D02*
D03*
X242500Y122500D02*
D03*
X232500Y142500D02*
D03*
X242500Y162500D02*
D03*
X232500Y182500D02*
D03*
X242500Y202500D02*
D03*
X232500Y222500D02*
D03*
D44*
X671364Y738894D02*
D03*
X662508Y722218D02*
D03*
Y714618D02*
D03*
Y707018D02*
D03*
Y699418D02*
D03*
Y691818D02*
D03*
Y684218D02*
D03*
Y676618D02*
D03*
Y669018D02*
D03*
Y661419D02*
D03*
X661337Y653909D02*
D03*
X661256Y646310D02*
D03*
Y638710D02*
D03*
Y631110D02*
D03*
Y623510D02*
D03*
X662508Y616013D02*
D03*
Y608414D02*
D03*
Y600814D02*
D03*
Y593214D02*
D03*
Y585614D02*
D03*
Y578014D02*
D03*
X682492Y572093D02*
D03*
Y579693D02*
D03*
Y602473D02*
D03*
Y610074D02*
D03*
X682732Y617670D02*
D03*
X683744Y625202D02*
D03*
Y632802D02*
D03*
Y640402D02*
D03*
Y648002D02*
D03*
X683230Y655584D02*
D03*
X682492Y663148D02*
D03*
Y670749D02*
D03*
Y678348D02*
D03*
Y685948D02*
D03*
Y693548D02*
D03*
Y701148D02*
D03*
Y708748D02*
D03*
Y716348D02*
D03*
Y723948D02*
D03*
X664302Y564981D02*
D03*
X662508Y557595D02*
D03*
Y549995D02*
D03*
Y542395D02*
D03*
Y534795D02*
D03*
X664647Y504884D02*
D03*
X671388Y501373D02*
D03*
X678713Y503400D02*
D03*
X682492Y540235D02*
D03*
Y547835D02*
D03*
Y555435D02*
D03*
X681501Y562970D02*
D03*
D45*
X655000Y500000D02*
D03*
X750000Y675000D02*
D03*
X580000Y490000D02*
D03*
Y457500D02*
D03*
X110000Y170000D02*
D03*
X117500D02*
D03*
X85000Y180000D02*
D03*
X65000Y115000D02*
D03*
X165000Y182500D02*
D03*
X95000Y152500D02*
D03*
Y145000D02*
D03*
X140000Y75000D02*
D03*
X110000Y77500D02*
D03*
X165000Y145000D02*
D03*
X182500Y117500D02*
D03*
X149000Y185677D02*
D03*
X47500Y197500D02*
D03*
X67500Y225000D02*
D03*
X275000Y190000D02*
D03*
Y180000D02*
D03*
Y170000D02*
D03*
Y160000D02*
D03*
Y150000D02*
D03*
X360000D02*
D03*
Y160000D02*
D03*
Y170000D02*
D03*
Y180000D02*
D03*
Y190000D02*
D03*
Y795000D02*
D03*
Y805000D02*
D03*
Y815000D02*
D03*
Y825000D02*
D03*
Y835000D02*
D03*
Y845000D02*
D03*
Y855000D02*
D03*
X255000Y795000D02*
D03*
Y805000D02*
D03*
Y815000D02*
D03*
Y825000D02*
D03*
Y835000D02*
D03*
Y845000D02*
D03*
Y855000D02*
D03*
D46*
X652500Y480000D02*
D03*
X132500Y777500D02*
D03*
X162500Y712500D02*
D03*
X37500Y797500D02*
D03*
X51500Y778500D02*
D03*
X55500Y714500D02*
D03*
X163500Y666500D02*
D03*
X127500Y677500D02*
D03*
X92500Y672500D02*
D03*
X147500Y777500D02*
D03*
X67500D02*
D03*
Y662500D02*
D03*
X147500Y737500D02*
D03*
X685000Y385000D02*
D03*
X593000Y499500D02*
D03*
X592500Y385000D02*
D03*
X577500Y435000D02*
D03*
X485000Y447500D02*
D03*
X555000Y512500D02*
D03*
X576500Y538500D02*
D03*
X630000Y397500D02*
D03*
X617500Y487500D02*
D03*
X672500Y460000D02*
D03*
X727500Y435000D02*
D03*
X177500Y70000D02*
D03*
X20000Y135000D02*
D03*
X85000Y67500D02*
D03*
D47*
X50000Y-50000D02*
D03*
X200000D02*
D03*
X50000Y350000D02*
D03*
X200000D02*
D03*
X32500Y547500D02*
D03*
X182500D02*
D03*
X2500Y867500D02*
D03*
X212500D02*
D03*
X432500Y92500D02*
D03*
X832500D02*
D03*
X432500Y792500D02*
D03*
X832500D02*
D03*
M02*
