M48
;Layer_Color=9474304
;FILE_FORMAT=4:4
METRIC,LZ
;TYPE=PLATED
T1F00S00C0.2000
T2F00S00C0.4000
T3F00S00C0.5000
T4F00S00C1.0000
T5F00S00C1.1000
T6F00S00C3.0000
%
T01
X0036Y0015
Y0016
Y0017
Y0018
Y0019
X00275
Y0018
Y0017
Y0016
Y0015
X00165Y00145
Y001825
X00149Y00185677
X001175Y0017
X0011
X00095Y001525
Y00145
X00085Y0018
X000475Y001975
X000675Y00225
X00065Y00115
X0011Y000775
X0014Y00075
X001825Y001175
X00255Y00795
Y00805
Y00815
Y00825
X0036
Y00815
Y00805
Y00795
X00671364Y00738894
X00662508Y00722218
Y00714618
Y00707018
Y00699418
Y00691818
Y00684218
Y00676618
Y00669018
Y00661419
X00661337Y00653909
X00661256Y0064631
Y0063871
Y0063111
Y0062351
X00662508Y00616013
Y00608414
Y00600814
Y00593214
Y00585614
Y00578014
X00664302Y00564981
X00662508Y00557595
Y00549995
Y00542395
Y00534795
X00682492Y00540235
Y00547835
Y00555435
X00681501Y0056297
X00682492Y00572093
Y00579693
Y00602473
Y00610074
X00682732Y0061767
X00683744Y00625202
Y00632802
Y00640402
Y00648002
X0068323Y00655584
X00682492Y00663148
Y00670749
Y00678348
Y00685948
Y00693548
Y00701148
Y00708748
Y00716348
Y00723948
X00678713Y005034
X00671388Y00501373
X00664647Y00504884
X00655Y005
X0058Y0049
Y004575
X0075Y00675
X0036Y00835
Y00845
Y00855
X00255
Y00845
Y00835
T02
X007275Y00435
X00685Y00385
X0063Y003975
X005925Y00385
X005775Y00435
X001775Y0007
X00085Y000675
X0002Y00135
X000675Y006625
X000925Y006725
X001275Y006775
X001635Y006665
X001625Y007125
X001475Y007375
Y007775
X001325
X000925Y007675
X000675Y007775
X000515Y007785
X000375Y007975
X000555Y007145
X00485Y004475
X00555Y005125
X005765Y005385
X00593Y004995
X006175Y004875
X006525Y0048
X006725Y0046
T03
X000125Y000225
X000325
X000525
X000725
X000925
X001125
X001325
X001525
X001725
X001925
X002125
X002325
X007325Y000925
X007825
X008075Y001425
X008575
X008325Y001925
X007825
X007325
X007575Y002425
X008075
X008575
X008325Y002925
X007825
X007325
X007575Y003425
X008075
X008575
X008325Y003925
X007825
X007325
X007575Y001425
X007075
X006575
X006075
X005575
X005075
X004575
X004825Y001925
X005325
X005825
X006325
X006825
X007075Y002425
X006575
X006075
X005575
X005075
X004575
X004825Y002925
X005325
X005825
X006325
X006825
X007075Y003425
X006575
X006075
X005575
X005075
X004575
X004825Y003925
X005325
X005825
X004325
Y002925
Y001925
X004825Y000925
X005325
X005825
X006325
X006825
X002425Y000825
X002225
X002325Y000625
X002225Y000425
X002025
X002425
X002325Y001025
X002225Y001225
X002425
X002325Y001425
X002225Y001625
X002425
X002325Y001825
X002225Y002025
X002025
X001925Y002225
X001725
X001325
X001125
X000925
X000325
X000125
X000225Y002025
X000125Y001825
X000225Y001625
Y001225
X000125Y001025
X000225Y000825
X000125Y000625
X000225Y000425
X000425
X000725Y001025
X001025Y001225
X001425
X001625
X001525Y001425
X001725Y001025
X001225Y000825
X002125Y002225
X002325
X002425Y002025
X004325Y004925
X004825
X005325
X005075Y005425
X004575
X004825Y005925
X005325
X005575Y006425
X006075
X006325Y006925
X005825
X005325
X004825
X004325
X004575Y007425
X005075
X005575
X006075
X006325Y007925
X006825
X007075Y007425
Y006425
Y005425
X006075
X006325Y005925
Y004925
X005075Y006425
X004575
X004325Y005925
X004825Y007925
X005325
X005825
X007325
X007825
X008075Y007425
X008575
X008325Y006925
X007825
X007325
X007575Y007425
X008075Y006425
X008575
X008325Y005925
X007825
X007325
X007575Y005425
X008075
X008575
X008325Y004925
X008575Y004425
X008075
X007325Y004925
T04
X0079Y00435
X001325Y005775
X000825
X006175Y006
X001625Y008675
T05
X00049Y002825
X000744
X000998
X001252
X001506
X00176
X005573Y006
X005827
X0079Y004977
Y004723
X001252Y008675
X000998
X000652
X000398
T06
X0005Y-0005
X002
X008325Y000925
X004325
X002Y0035
X0005
X000325Y005475
X001825
X004325Y007925
X008325
X002125Y008675
X000025
M30
